<svg width="120" height="120" viewBox="0 0 120 120" fill="none" xmlns="http://www.w3.org/2000/svg">
<g filter="url(#filter0_d_690_2702)">
<circle cx="40" cy="40" r="40" transform="matrix(-1 0 0 1 100 16)" fill="white"/>
</g>
<path d="M43.4697 55.4697C43.1768 55.7626 43.1768 56.2374 43.4697 56.5303L48.2426 61.3033C48.5355 61.5962 49.0104 61.5962 49.3033 61.3033C49.5962 61.0104 49.5962 60.5355 49.3033 60.2426L45.0607 56L49.3033 51.7574C49.5962 51.4645 49.5962 50.9896 49.3033 50.6967C49.0104 50.4038 48.5355 50.4038 48.2426 50.6967L43.4697 55.4697ZM76 55.25L44 55.25V56.75L76 56.75V55.25Z" fill="#E2E1E1"/>
<defs>
<filter id="filter0_d_690_2702" x="0" y="0" width="120" height="120" filterUnits="userSpaceOnUse" color-interpolation-filters="sRGB">
<feFlood flood-opacity="0" result="BackgroundImageFix"/>
<feColorMatrix in="SourceAlpha" type="matrix" values="0 0 0 0 0 0 0 0 0 0 0 0 0 0 0 0 0 0 127 0" result="hardAlpha"/>
<feOffset dy="4"/>
<feGaussianBlur stdDeviation="10"/>
<feComposite in2="hardAlpha" operator="out"/>
<feColorMatrix type="matrix" values="0 0 0 0 0 0 0 0 0 0 0 0 0 0 0 0 0 0 0.08 0"/>
<feBlend mode="normal" in2="BackgroundImageFix" result="effect1_dropShadow_690_2702"/>
<feBlend mode="normal" in="SourceGraphic" in2="effect1_dropShadow_690_2702" result="shape"/>
</filter>
</defs>
</svg>
