<svg width="32" height="32" viewBox="0 0 32 32" fill="none" xmlns="http://www.w3.org/2000/svg">
<g clip-path="url(#clip0_660_4607)">
<path d="M16 11.9998C14.9391 11.9998 13.9217 12.4213 13.1715 13.1714C12.4214 13.9216 12 14.939 12 15.9998C12 17.0607 12.4214 18.0781 13.1715 18.8283C13.9217 19.5784 14.9391 19.9998 16 19.9998C17.0608 19.9998 18.0782 19.5784 18.8284 18.8283C19.5785 18.0781 20 17.0607 20 15.9998C20 14.939 19.5785 13.9216 18.8284 13.1714C18.0782 12.4213 17.0608 11.9998 16 11.9998ZM16 9.33317C17.7681 9.33317 19.4638 10.0355 20.714 11.2858C21.9642 12.536 22.6666 14.2317 22.6666 15.9998C22.6666 17.7679 21.9642 19.4636 20.714 20.7139C19.4638 21.9641 17.7681 22.6665 16 22.6665C14.2318 22.6665 12.5362 21.9641 11.2859 20.7139C10.0357 19.4636 9.33329 17.7679 9.33329 15.9998C9.33329 14.2317 10.0357 12.536 11.2859 11.2858C12.5362 10.0355 14.2318 9.33317 16 9.33317ZM24.6666 8.99984C24.6666 9.44186 24.491 9.86579 24.1785 10.1783C23.8659 10.4909 23.442 10.6665 23 10.6665C22.5579 10.6665 22.134 10.4909 21.8214 10.1783C21.5089 9.86579 21.3333 9.44186 21.3333 8.99984C21.3333 8.55781 21.5089 8.13389 21.8214 7.82133C22.134 7.50877 22.5579 7.33317 23 7.33317C23.442 7.33317 23.8659 7.50877 24.1785 7.82133C24.491 8.13389 24.6666 8.55781 24.6666 8.99984ZM16 5.33317C12.7013 5.33317 12.1626 5.3425 10.628 5.4105C9.58263 5.45984 8.88129 5.59984 8.23063 5.85317C7.65196 6.07717 7.23463 6.34517 6.79063 6.7905C6.3733 7.1937 6.05243 7.68595 5.85196 8.2305C5.59863 8.88384 5.45863 9.58384 5.41063 10.6278C5.34129 12.0998 5.33329 12.6145 5.33329 15.9998C5.33329 19.2985 5.34263 19.8372 5.41063 21.3718C5.45996 22.4158 5.59996 23.1185 5.85196 23.7678C6.07863 24.3478 6.34529 24.7652 6.78796 25.2078C7.23729 25.6558 7.65463 25.9238 8.22796 26.1452C8.88663 26.3998 9.58796 26.5412 10.628 26.5892C12.1 26.6585 12.6146 26.6665 16 26.6665C19.2986 26.6665 19.8373 26.6572 21.372 26.5892C22.4146 26.5398 23.1173 26.3998 23.768 26.1478C24.3453 25.9225 24.7653 25.6545 25.208 25.2118C25.6573 24.7625 25.9253 24.3452 26.1466 23.7718C26.4 23.1145 26.5413 22.4118 26.5893 21.3718C26.6586 19.8998 26.6666 19.3852 26.6666 15.9998C26.6666 12.7012 26.6573 12.1625 26.5893 10.6278C26.54 9.58517 26.4 8.88117 26.1466 8.2305C25.9457 7.68651 25.6254 7.19445 25.2093 6.7905C24.8063 6.37297 24.314 6.05206 23.7693 5.85184C23.116 5.5985 22.4146 5.4585 21.372 5.4105C19.9 5.34117 19.3853 5.33317 16 5.33317ZM16 2.6665C19.6226 2.6665 20.0746 2.67984 21.496 2.7465C22.916 2.81317 23.8826 3.03584 24.7333 3.3665C25.6133 3.70517 26.3546 4.16384 27.096 4.90384C27.774 5.57037 28.2986 6.37662 28.6333 7.2665C28.9626 8.11584 29.1866 9.08384 29.2533 10.5038C29.316 11.9252 29.3333 12.3772 29.3333 15.9998C29.3333 19.6225 29.32 20.0745 29.2533 21.4958C29.1866 22.9158 28.9626 23.8825 28.6333 24.7332C28.2995 25.6235 27.7748 26.43 27.096 27.0958C26.4292 27.7736 25.623 28.2982 24.7333 28.6332C23.884 28.9625 22.916 29.1865 21.496 29.2532C20.0746 29.3158 19.6226 29.3332 16 29.3332C12.3773 29.3332 11.9253 29.3198 10.504 29.2532C9.08396 29.1865 8.11729 28.9625 7.26663 28.6332C6.37639 28.2991 5.57 27.7744 4.90396 27.0958C4.22583 26.4294 3.7012 25.6231 3.36663 24.7332C3.03596 23.8838 2.81329 22.9158 2.74663 21.4958C2.68396 20.0745 2.66663 19.6225 2.66663 15.9998C2.66663 12.3772 2.67996 11.9252 2.74663 10.5038C2.81329 9.0825 3.03596 8.11717 3.36663 7.2665C3.70027 6.37608 4.22503 5.5696 4.90396 4.90384C5.57019 4.22548 6.37653 3.70081 7.26663 3.3665C8.11729 3.03584 9.08263 2.81317 10.504 2.7465C11.9253 2.68384 12.3773 2.6665 16 2.6665Z" fill="white"/>
</g>
<defs>
<clipPath id="clip0_660_4607">
<rect width="32" height="32" fill="white"/>
</clipPath>
</defs>
</svg>
