<svg width="32" height="32" viewBox="0 0 32 32" fill="none" xmlns="http://www.w3.org/2000/svg">
<path fill-rule="evenodd" clip-rule="evenodd" d="M31 18.652C30.9169 18.5388 30.8026 18.4534 30.6714 18.4064C28.1986 17.6083 21.3509 15.3281 19.0683 16.2314C18.5821 16.5099 18.1319 16.8487 17.7282 17.24L2.41585 31.1668C2.35307 31.2389 2.31297 31.3283 2.30065 31.4236C2.28832 31.5189 2.30432 31.6158 2.34666 31.7018C2.38618 31.7877 2.44822 31.8609 2.52598 31.9135C2.60374 31.9661 2.69425 31.996 2.78762 32L23.1926 29.369C23.7471 29.3187 24.2932 29.1979 24.818 29.0094C27.239 27.7027 29.876 21.6513 30.9568 19.0817C30.999 18.9506 30.999 18.8093 30.9568 18.6783L31 18.652ZM13.7077 7.15441C11.9266 6.14585 10.059 6.09322 9.54026 7.04039C9.02149 7.98756 10.0504 9.56617 11.8315 10.5484C13.6126 11.5307 15.4715 11.6008 15.999 10.6624C16.5264 9.72403 15.4888 8.12788 13.7077 7.15441ZM17.9097 0.0331224C17.7778 -0.0110408 17.6353 -0.0110408 17.5034 0.0331224C15.0479 0.910128 7.99263 3.4622 6.70435 5.55825C6.47491 6.07573 6.31218 6.62104 6.22017 7.18072L2.00085 27.5887C1.99538 27.6839 2.01642 27.7788 2.06159 27.8625C2.10676 27.9462 2.17426 28.0153 2.25632 28.0619C2.33837 28.1086 2.43171 28.1309 2.52566 28.1263C2.61962 28.1217 2.71038 28.0904 2.78762 28.0359L17.685 13.653C18.1036 13.279 18.4727 12.8516 18.783 12.3814C19.9762 9.88189 18.783 3.10264 18.1173 0.383919C18.0904 0.246096 18.0169 0.122075 17.9097 0.0331224ZM15.1084 4.97945C12.1687 3.33068 8.5114 4.32168 7.62084 5.95291C6.73029 7.58414 8.37307 10.2415 11.3041 11.899C14.2352 13.5566 17.3564 13.5741 18.221 11.9516C19.0856 10.3292 18.0308 6.63699 15.0997 4.97945H15.1084ZM23.9966 21.8179C23.132 19.9324 21.6708 18.7747 20.7025 19.1869C19.7341 19.5991 19.6303 21.5285 20.4863 23.4141C21.3423 25.2997 22.8035 26.4573 23.7805 26.0013C24.7575 25.5452 24.844 23.6597 23.9966 21.7829V21.8179ZM26.1754 20.7831C24.7748 17.6873 21.2472 16.2928 19.5785 17.0646C17.9098 17.8364 17.6763 20.976 19.077 24.0806C20.4777 27.1852 22.9591 29.062 24.6278 28.2815C26.2965 27.5009 27.5675 23.8965 26.1754 20.7919V20.7831Z" fill="#1B1B1B"/>
<path fill-rule="evenodd" clip-rule="evenodd" d="M13.7077 7.15441C11.9266 6.14585 10.059 6.09322 9.54026 7.04039C9.02149 7.98756 10.0504 9.56617 11.8315 10.5484C13.6126 11.5307 15.4715 11.6008 15.999 10.6624C16.5264 9.72403 15.4888 8.12788 13.7077 7.15441ZM23.9966 21.8179C23.132 19.9324 21.6708 18.7747 20.7025 19.1869C19.7341 19.5991 19.6303 21.5285 20.4863 23.4141C21.3423 25.2997 22.8035 26.4573 23.7805 26.0013C24.7575 25.5452 24.844 23.6597 23.9966 21.7829V21.8179Z" fill="#E07153"/>
</svg>
