<svg width="24" height="24" viewBox="0 0 24 24" fill="none" xmlns="http://www.w3.org/2000/svg">
<path fill-rule="evenodd" clip-rule="evenodd" d="M20.2279 1.44946C20.0327 1.93879 19.5863 2.78395 19.2908 3.22328C18.6592 4.16265 18.1853 4.65494 16.5116 6.11055C14.7941 7.60425 14.2838 8.17023 13.7889 9.13005C13.2174 10.2385 13.0233 11.1696 12.9845 12.9885C12.9669 13.817 12.9729 13.9813 13.0184 13.9157C13.0487 13.8719 13.2258 13.602 13.4119 13.3159C14.1268 12.2165 14.7669 11.4982 16.1034 10.2957C17.4617 9.07358 17.9927 8.49346 18.6081 7.55978C19.0801 6.84376 19.9231 5.25982 20.1428 4.67662C20.2105 4.49671 20.2969 4.41955 20.4305 4.41955C20.7928 4.41955 20.7977 4.98335 20.4462 6.1962C20.1333 7.27585 19.7008 8.22191 19.1319 9.07118C18.6915 9.72872 18.3521 10.1356 17.4786 11.0534C16.347 12.2423 16.0259 12.6046 15.5923 13.1813C15.0555 13.8954 14.5588 14.6763 14.6092 14.7266C14.6182 14.7355 14.6921 14.7249 14.7735 14.703C14.8549 14.681 15.434 14.5664 16.0604 14.4483C17.7716 14.1255 18.4353 13.9292 19.2996 13.4905C20.7204 12.7691 21.7183 11.5209 22.3116 9.72293C22.8679 8.0372 22.9495 6.39534 22.5534 4.86017C22.2274 3.59688 21.5008 2.34521 20.5611 1.42803L20.3274 1.20001L20.2279 1.44946ZM11.2472 2.94808C9.36691 3.12786 7.67052 3.80198 6.2621 4.92902C6.08483 5.07088 5.93979 5.19958 5.93979 5.21501C5.93979 5.23047 6.09463 5.28767 6.28389 5.34213C6.47315 5.39663 6.80191 5.51612 7.01446 5.60772L7.40094 5.77426L7.74474 5.55117C9.71677 4.27152 12.1759 3.95147 14.4058 4.68425C14.8837 4.84127 15.7191 5.2378 16.1392 5.50695L16.4543 5.70888L16.9524 5.26775C17.2264 5.02508 17.452 4.80781 17.4538 4.78489C17.4599 4.70657 16.5986 4.16274 15.9959 3.86432C15.0192 3.38077 13.9517 3.07615 12.8435 2.96471C12.4307 2.92323 11.598 2.91454 11.2472 2.94808ZM20.0912 5.60622C19.7431 6.3285 19.2847 7.14821 18.9097 7.71861C18.2772 8.68082 17.758 9.26291 16.6196 10.2863C14.9874 11.7535 14.2275 12.6145 13.4905 13.8315C12.8403 14.905 12.2872 16.3061 11.9544 17.7229C11.9378 17.7936 11.9175 17.8321 11.9093 17.8086C11.9011 17.785 11.8068 17.4623 11.6998 17.0915C11.0714 14.9144 9.96448 12.7136 8.54807 10.8249C7.92901 9.99937 6.97218 8.9264 6.44393 8.46535L6.15467 8.21282L6.31892 8.41586C8.04182 10.5455 9.57792 13.4612 10.4467 16.2508C11.0583 18.215 11.4621 20.6841 11.4621 22.4607V22.8H11.971H12.48L12.5091 21.9625C12.6511 17.8721 13.6375 14.9419 15.7067 12.4632C15.8844 12.2504 16.4432 11.6526 16.9487 11.1348C17.4541 10.6168 17.9943 10.0364 18.1491 9.84487C18.9942 8.79915 19.6989 7.48446 20.0703 6.26042C20.225 5.75087 20.3645 5.18921 20.3485 5.14114C20.341 5.11878 20.2252 5.32807 20.0912 5.60622ZM3.14642 5.39187C2.46789 5.45245 1.17546 5.68772 1.2003 5.74616C1.20705 5.76201 1.36902 5.91179 1.56022 6.07902C2.3036 6.7291 2.85918 7.48849 3.14423 8.2441C3.29894 8.65404 3.40066 9.07426 3.57725 10.0322C3.7987 11.2335 3.97902 11.7325 4.42484 12.3776C5.08425 13.3317 6.24294 14.0055 7.80374 14.3423C8.26731 14.4424 9.43159 14.5987 9.46502 14.5654C9.48999 14.5405 8.92504 13.2783 8.60578 12.6458C7.88771 11.223 6.96586 9.7758 6.07078 8.66599C5.71005 8.21873 5.66205 8.05738 5.84048 7.89166C5.97297 7.76856 6.13296 7.78292 6.35235 7.93763C6.68841 8.17456 7.77396 9.30669 8.3402 10.0108C8.93703 10.7529 9.82498 12.0506 10.237 12.7827C10.4489 13.1594 10.5022 13.2276 10.5378 13.168C10.5636 13.1249 10.5807 12.6895 10.5802 12.0888C10.5791 10.9567 10.5279 10.6134 10.2343 9.77246C9.6909 8.21608 8.44892 6.69556 7.21047 6.07045C6.55661 5.74041 5.65925 5.49264 4.80714 5.40691C4.39029 5.36496 3.53474 5.35721 3.14642 5.39187ZM3.06683 10.1084C2.91303 10.8352 2.88896 11.0974 2.89098 12.0245C2.89326 13.0658 2.95888 13.5663 3.20968 14.4558C4.08684 17.567 6.56662 19.9815 9.7166 20.7914C10.101 20.8902 11.0006 21.046 11.0284 21.0186C11.0496 20.9976 10.9096 19.7812 10.8759 19.6936C10.8628 19.6596 10.7815 19.6197 10.6951 19.6048C10.6088 19.59 10.3497 19.5313 10.1193 19.4744C7.1057 18.7304 4.85141 16.2903 4.34714 13.2266C4.27726 12.8022 4.25556 12.7447 4.04434 12.4246C3.67029 11.8578 3.40311 11.0902 3.25214 10.1488C3.22275 9.96552 3.1848 9.807 3.16778 9.7965C3.15076 9.78604 3.10534 9.92636 3.06683 10.1084ZM20.7446 12.9123C20.4864 13.1498 19.6235 13.7597 19.5458 13.7597C19.5271 13.7597 19.4684 13.9179 19.4152 14.1113C19.2942 14.5514 19.1263 14.9747 18.8706 15.4841C17.8247 17.5678 15.8508 19.0726 13.5365 19.5506C13.2819 19.6032 13.0616 19.6637 13.0469 19.6851C13.0321 19.7066 12.9974 19.9679 12.9697 20.2659C12.9419 20.5639 12.911 20.8609 12.9008 20.9259C12.8797 21.0604 12.8603 21.0603 13.6108 20.931C17.0306 20.342 19.9148 17.6796 20.7834 14.31C20.9278 13.7499 21.0578 12.9692 21.0377 12.7831L21.024 12.6554L20.7446 12.9123Z" fill="#00C070"/>
</svg>
