<svg width="24" height="24" viewBox="0 0 24 24" fill="none" xmlns="http://www.w3.org/2000/svg">
<path fill-rule="evenodd" clip-rule="evenodd" d="M12.2947 1.22632C12.1889 1.25992 11.8366 1.82552 11.7146 2.15761C11.6401 2.36026 11.6197 2.55712 11.6363 2.91163C11.6584 3.38517 11.6629 3.39794 11.9784 3.88325C12.2424 4.28941 12.3031 4.4285 12.3268 4.68204C12.3605 5.04301 12.2435 5.45623 11.9821 5.89985C11.7239 6.33785 11.7602 6.51888 12.1059 6.51888C12.2941 6.51888 12.3956 6.43506 12.6019 6.10938C12.8822 5.66671 13.0127 5.18747 12.9857 4.69943C12.9626 4.28196 12.9481 4.24248 12.6366 3.75401L12.3116 3.24419V2.77301C12.3116 2.3155 12.319 2.28977 12.5648 1.88503C12.7039 1.6558 12.8179 1.44905 12.8179 1.42563C12.8179 1.40222 12.7643 1.34063 12.6988 1.2888C12.5829 1.19711 12.4508 1.17671 12.2947 1.22632ZM7.76766 3.20885C7.34047 3.68955 7.12136 4.41337 7.2257 4.99933C7.26763 5.23459 7.36334 5.44002 7.59346 5.78855L7.90452 6.25973L7.90249 6.70735C7.90065 7.1194 7.8823 7.18866 7.67213 7.57903C7.54653 7.81226 7.43111 8.05798 7.41569 8.12508C7.37948 8.28236 7.54045 8.41349 7.74628 8.39436C7.94752 8.3757 8.11118 8.17922 8.35738 7.66073C8.53587 7.28492 8.55308 7.20176 8.55624 6.70273L8.55963 6.15626L8.23309 5.64258C7.93781 5.17805 7.90446 5.09441 7.88463 4.76864C7.85961 4.35749 7.96407 4.01089 8.2335 3.61152C8.3977 3.36806 8.40616 3.27218 8.27507 3.13818C8.16954 3.03028 7.89201 3.06896 7.76766 3.20885ZM16.5353 3.27373C16.45 3.38065 16.3102 3.6086 16.2247 3.78025C16.0883 4.05415 16.0689 4.16205 16.0665 4.66234L16.0637 5.23242L16.3912 5.74605L16.7188 6.25973L16.718 6.70735C16.7173 7.11982 16.6994 7.18828 16.49 7.57903C16.1915 8.13582 16.1755 8.19887 16.3038 8.31101C16.4359 8.42654 16.6403 8.43002 16.7673 8.31897C16.9092 8.19491 17.2017 7.66375 17.3097 7.33392C17.429 6.9697 17.4302 6.41805 17.3122 6.10391C17.2619 5.96991 17.1078 5.69573 16.9698 5.49459C16.7223 5.13413 16.7188 5.12217 16.7188 4.65773C16.7188 4.19819 16.7252 4.17585 16.9805 3.75283C17.2342 3.3323 17.2392 3.31548 17.1429 3.19919C16.9805 3.00314 16.7263 3.03433 16.5353 3.27373Z" fill="#1B1B1B"/>
<path fill-rule="evenodd" clip-rule="evenodd" d="M5.80636 18.9524L10.7522 22.9621C11.1286 23.2463 11.5873 23.4 12.0589 23.4C12.5305 23.4 12.9892 23.2463 13.3656 22.9621L18.3114 18.9524C18.4831 18.8124 18.6203 18.6347 18.7123 18.4331C18.8043 18.2316 18.8486 18.0115 18.8419 17.7901V11.6194C18.8583 11.398 18.8301 11.1756 18.7591 10.9652C18.6881 10.7549 18.5757 10.5609 18.4284 10.3947C18.4925 10.65 18.4801 10.9185 18.3927 11.1668C18.3053 11.4151 18.1468 11.6322 17.9369 11.7911L12.9833 15.8008C12.6175 16.1054 12.1566 16.2721 11.6806 16.2721C11.2046 16.2721 10.7436 16.1054 10.3777 15.8008L5.43193 11.7911C5.17963 11.5958 5.00088 11.3208 4.92484 11.011L4.80005 11.7911L5.25247 17.8446C5.25634 18.0595 5.30644 18.2711 5.39931 18.4649C5.49219 18.6588 5.62568 18.8303 5.79075 18.968L5.80636 18.9524Z" fill="#1B1B1B"/>
<path fill-rule="evenodd" clip-rule="evenodd" d="M13.0459 12.9535L13.2799 12.7663L15.0585 11.3231C15.1359 11.2666 15.1988 11.1926 15.2422 11.1072C15.2856 11.0218 15.3082 10.9274 15.3082 10.8316C15.3082 10.7358 15.2856 10.6414 15.2422 10.556C15.1988 10.4706 15.1359 10.3966 15.0585 10.3401L12.4295 8.22606C12.2545 8.09319 12.0408 8.02127 11.8211 8.02127C11.6013 8.02127 11.3876 8.09319 11.2126 8.22606L10.4871 8.81113C9.75381 9.41181 10.2531 10.1763 10.7445 10.894C10.9411 11.1912 11.1601 11.4729 11.3998 11.7365C11.6884 12.0486 12.6324 13.2967 13.0459 12.9691V12.9535Z" fill="#E07153"/>
<path fill-rule="evenodd" clip-rule="evenodd" d="M8.41206 11.4713L11.041 13.601C11.1789 13.7041 11.3408 13.7703 11.5114 13.7935C11.682 13.8167 11.8557 13.7961 12.0161 13.7336C12.5856 13.5152 11.9381 13.1407 11.6573 12.8833C11.3764 12.6259 11.0644 12.3372 10.8772 12.1032C10.6243 11.8269 10.3922 11.5323 10.1829 11.2217C9.53537 10.2856 9.80843 9.38063 9.08293 9.97351L8.44324 10.4884C8.36581 10.5457 8.3029 10.6203 8.25955 10.7064C8.21619 10.7924 8.1936 10.8874 8.1936 10.9837C8.1936 11.0801 8.21619 11.1751 8.25955 11.2611C8.3029 11.3471 8.36581 11.4218 8.44324 11.4791L8.41206 11.4713Z" fill="#E07153"/>
</svg>
