<svg width="24" height="24" viewBox="0 0 24 24" fill="none" xmlns="http://www.w3.org/2000/svg">
<circle cx="12" cy="12" r="12" fill="#6DD8B1"/>
<path d="M4.95096 15V10.3333H6.25096L8.01763 13.5333H8.05096V10.3333H9.05096V15H7.75096L5.98429 11.8H5.95096V15H4.95096ZM9.98351 15V10.3333H13.1502V11.2333H10.9835V12.2333H13.0168V13.0667H10.9835V14.1H13.2168V15H9.98351ZM14.7809 15L13.5476 10.3333H14.5809L15.3142 13.5667H15.3476L16.1476 10.3333H17.2142L18.0142 13.5667H18.0476L18.7809 10.3333H19.8142L18.5809 15H17.4809L16.6809 11.7667L15.8809 15H14.7809Z" fill="white"/>
</svg>
