<svg width="24" height="24" viewBox="0 0 24 24" fill="none" xmlns="http://www.w3.org/2000/svg">
<path fill-rule="evenodd" clip-rule="evenodd" d="M11.6473 1.30024C11.4804 1.43315 11.1451 2.14838 11.0173 2.64424C10.8851 3.15701 10.8121 3.85458 10.8485 4.25865C10.9001 4.83291 10.9685 5.13794 11.2262 5.94429C11.7849 7.69237 11.9916 8.64482 12.0303 9.64794C12.0508 10.1805 12.0398 10.4169 11.9818 10.6914C11.7835 11.6307 11.2392 12.1716 10.4072 12.2565C9.27202 12.3724 8.41294 11.8408 8.01337 10.7753C7.93264 10.56 7.8233 10.3466 7.77034 10.3008C7.62604 10.1762 7.33071 10.1917 7.19308 10.331C6.87663 10.6513 6.64838 12.5933 6.79009 13.7601C6.88203 14.5175 6.83981 14.4578 7.25697 14.4204C8.17867 14.3379 9.20926 14.5775 11.1323 15.3215C13.2434 16.1383 14.7795 16.5546 16.5971 16.8026C17.6445 16.9455 20.4709 16.9073 21.0134 16.743C21.174 16.6943 21.3794 15.5514 21.3809 14.6977C21.3826 13.7002 21.1604 12.7528 20.7031 11.8084C20.3104 10.9973 20.1022 10.8073 19.7635 10.9507C19.6048 11.0179 19.5545 11.1044 19.4128 11.5542C19.2978 11.9192 19.0516 12.3499 18.7665 12.6844C18.3179 13.2108 17.6 13.3782 16.9958 13.0974C16.4858 12.8603 16.2639 12.5595 16.1687 11.9758C16.0954 11.5264 16.161 10.9215 16.43 9.56779C16.9322 7.04043 16.9695 6.53991 16.7136 5.76476C16.5682 5.3244 16.4054 5.13708 16.1683 5.13708C15.9589 5.13708 15.8712 5.20394 15.7164 5.48162C15.5402 5.79762 15.2542 6.06153 14.914 6.22202C14.6915 6.32705 14.5847 6.34647 14.2282 6.3469C13.8529 6.34737 13.7722 6.33113 13.5012 6.2007C12.5178 5.72763 12.18 4.63676 12.2976 2.31481L12.3408 1.46306L12.1932 1.32954C12.0138 1.16739 11.8268 1.15732 11.6473 1.30024ZM0.35554 14.2092C0.038532 14.3787 -0.0912641 14.7989 0.068319 15.1393C0.207919 15.4371 1.2909 16.3616 2.13492 16.9034C2.70454 17.2691 3.5116 17.6905 3.55128 17.6429C3.57033 17.62 3.62404 17.4731 3.67062 17.3164C3.71715 17.1597 3.82842 16.8749 3.91787 16.6834C4.00728 16.4919 4.07342 16.3297 4.06479 16.323C4.05616 16.3162 3.83822 16.1994 3.58046 16.0633C2.92472 15.7171 2.28475 15.2708 1.67653 14.7354C1.39039 14.4836 1.10003 14.2402 1.03126 14.1947C0.867219 14.086 0.574322 14.0923 0.35554 14.2092ZM7.082 15.349C6.20584 15.4654 5.45999 15.9273 4.99513 16.6413C4.50522 17.3939 4.33245 18.0309 4.36773 18.9546C4.40436 19.9124 4.63998 20.4703 5.29215 21.1435C6.31312 22.1975 8.01895 22.8269 10.6397 23.1167C11.5438 23.2167 13.589 23.2296 14.2752 23.1396C17.7703 22.6816 20.7625 21.1913 23.1198 18.7344C23.9888 17.8286 24.0956 17.6479 23.9405 17.3445C23.8083 17.0857 23.6704 17.0742 22.945 17.2619C22.1565 17.466 21.2526 17.6425 20.5609 17.7277C19.7493 17.8276 17.2543 17.8137 16.4564 17.7048C14.5431 17.4437 12.7526 16.9472 10.5285 16.0611C9.05952 15.4758 7.91195 15.2387 7.082 15.349ZM6.03842 17.789C6.1109 17.8269 6.19758 17.9249 6.23103 18.0067C6.28263 18.1327 6.28005 18.1934 6.21419 18.4048C5.978 19.1633 6.29187 19.8116 7.13862 20.3141C8.06863 20.866 9.67675 21.2509 11.5029 21.3586C11.7892 21.3755 12.081 21.4186 12.1511 21.4545C12.4081 21.5857 12.4518 21.8942 12.2481 22.1392L12.121 22.2922L11.4859 22.2624C9.7935 22.1829 8.16456 21.8224 7.05123 21.281C6.22277 20.8781 5.72024 20.4118 5.41407 19.7618C5.27653 19.4697 5.2687 19.4224 5.2687 18.8833C5.2687 18.3705 5.28043 18.2898 5.38597 18.0761C5.55104 17.742 5.76701 17.6469 6.03842 17.789Z" fill="#1B1B1B"/>
<path fill-rule="evenodd" clip-rule="evenodd" d="M0.35554 14.2093C0.038532 14.3787 -0.0912641 14.7989 0.068319 15.1393C0.207919 15.4371 1.2909 16.3616 2.13492 16.9034C2.70454 17.2691 3.5116 17.6905 3.55128 17.6429C3.57033 17.62 3.62404 17.4731 3.67062 17.3164C3.71715 17.1597 3.82842 16.8749 3.91787 16.6834C4.00728 16.4919 4.07342 16.3298 4.06479 16.323C4.05616 16.3163 3.83822 16.1994 3.58046 16.0633C2.92472 15.7171 2.28475 15.2708 1.67653 14.7354C1.39039 14.4836 1.10003 14.2403 1.03126 14.1947C0.867219 14.086 0.574322 14.0924 0.35554 14.2093ZM7.082 15.3491C6.20584 15.4655 5.45999 15.9274 4.99513 16.6414C4.50522 17.3939 4.33245 18.031 4.36773 18.9546C4.40436 19.9124 4.63998 20.4703 5.29215 21.1436C6.31312 22.1975 8.01895 22.827 10.6397 23.1167C11.5438 23.2167 13.589 23.2296 14.2752 23.1397C17.7703 22.6817 20.7625 21.1913 23.1198 18.7344C23.9888 17.8286 24.0956 17.6479 23.9405 17.3445C23.8083 17.0857 23.6704 17.0743 22.945 17.262C22.1565 17.466 21.2526 17.6426 20.5609 17.7277C19.7493 17.8277 17.2543 17.8137 16.4564 17.7049C14.5431 17.4437 12.7526 16.9472 10.5285 16.0611C9.05952 15.4759 7.91195 15.2388 7.082 15.3491ZM6.03842 17.789C6.1109 17.827 6.19758 17.9249 6.23103 18.0067C6.28263 18.1327 6.28005 18.1934 6.21419 18.4048C5.978 19.1634 6.29187 19.8117 7.13862 20.3142C8.06863 20.8661 9.67675 21.2509 11.5029 21.3586C11.7892 21.3755 12.081 21.4187 12.1511 21.4545C12.4081 21.5857 12.4518 21.8942 12.2481 22.1392L12.121 22.2923L11.4859 22.2624C9.7935 22.1829 8.16456 21.8225 7.05123 21.2811C6.22277 20.8782 5.72024 20.4118 5.41407 19.7618C5.27653 19.4698 5.2687 19.4224 5.2687 18.8834C5.2687 18.3706 5.28043 18.2898 5.38597 18.0762C5.55104 17.742 5.76701 17.647 6.03842 17.789Z" fill="#E07153"/>
</svg>
