<svg width="24" height="24" viewBox="0 0 24 24" fill="none" xmlns="http://www.w3.org/2000/svg">
<circle cx="12" cy="12" r="12" fill="#A1DCDC"/>
<path d="M6.73325 14.6667V11.0667H5.39992V9.99999H9.26659V11.0667H7.93325V14.6667H6.73325ZM13.2938 14.1C12.8893 14.5222 12.3471 14.7333 11.6671 14.7333C10.9871 14.7333 10.4449 14.5222 10.0404 14.1C9.636 13.6778 9.43377 13.0889 9.43377 12.3333C9.43377 11.5778 9.636 10.9889 10.0404 10.5667C10.4449 10.1444 10.9871 9.93332 11.6671 9.93332C12.3471 9.93332 12.8893 10.1444 13.2938 10.5667C13.6982 10.9889 13.9004 11.5778 13.9004 12.3333C13.9004 13.0889 13.6982 13.6778 13.2938 14.1ZM10.9004 13.3133C11.0827 13.5489 11.3382 13.6667 11.6671 13.6667C11.996 13.6667 12.2493 13.5489 12.4271 13.3133C12.6093 13.0778 12.7004 12.7511 12.7004 12.3333C12.7004 11.9155 12.6093 11.5889 12.4271 11.3533C12.2493 11.1178 11.996 11 11.6671 11C11.3382 11 11.0827 11.1178 10.9004 11.3533C10.7227 11.5889 10.6338 11.9155 10.6338 12.3333C10.6338 12.7511 10.7227 13.0778 10.9004 13.3133ZM14.5687 14.6667V9.99999H16.5687C17.0709 9.99999 17.4798 10.1555 17.7953 10.4667C18.1109 10.7778 18.2687 11.1778 18.2687 11.6667C18.2687 12.1511 18.1087 12.5511 17.7887 12.8667C17.4731 13.1778 17.0664 13.3333 16.5687 13.3333H15.7687V14.6667H14.5687ZM15.7687 12.2667H16.4687C16.6509 12.2667 16.7953 12.2133 16.902 12.1067C17.0131 11.9955 17.0687 11.8489 17.0687 11.6667C17.0687 11.4844 17.0131 11.34 16.902 11.2333C16.7953 11.1222 16.6509 11.0667 16.4687 11.0667H15.7687V12.2667Z" fill="white"/>
</svg>
