<svg width="392" height="115" viewBox="0 0 392 115" fill="none" xmlns="http://www.w3.org/2000/svg">
<g style="mix-blend-mode:color-dodge" opacity="0.3">
<path fill-rule="evenodd" clip-rule="evenodd" d="M392 0.880909V115H-5V1.18372C11.8036 6.1939 19.6609 25.3399 39.6211 25.3399C62.6003 25.3399 101.652 0 124.576 0C147.5 0 154.489 25.3399 177.455 25.3399C200.42 25.3399 239.486 0 262.424 0C285.361 0 292.323 25.3399 315.302 25.3399C335.703 25.3399 368.759 5.34051 392 0.880909Z" fill="#3FA693"/>
</g>
<g style="mix-blend-mode:color-dodge" opacity="0.4">
<path fill-rule="evenodd" clip-rule="evenodd" d="M392 32.8294V113H-5V33.2026C11.8036 38.2202 19.6609 57.4473 39.6211 57.4473C62.6003 57.4473 101.652 32 124.576 32C147.5 32 154.489 57.4473 177.455 57.4473C200.42 57.4473 239.486 32 262.424 32C285.361 32 292.323 57.4473 315.302 57.4473C335.703 57.4473 368.759 37.377 392 32.8294Z" fill="#3FA693"/>
</g>
<g style="mix-blend-mode:color-dodge" opacity="0.4">
<path fill-rule="evenodd" clip-rule="evenodd" d="M392 68.2206V115H-5V67.9051C18.241 72.3623 51.2968 92.2754 71.6982 92.2754C94.6773 92.2754 101.611 67 124.576 67C147.542 67 186.608 92.248 209.545 92.248C232.483 92.248 239.444 67 262.424 67C285.403 67 324.455 92.248 347.379 92.248C367.353 92.2754 375.196 73.1989 392 68.2206Z" fill="#3FA693"/>
</g>
</svg>
