<svg width="64" height="64" viewBox="0 0 64 64" fill="none" xmlns="http://www.w3.org/2000/svg">
<g clip-path="url(#clip0_850_23393)">
<path opacity="0.03" d="M48.8149 59.6571C48.8538 61.8862 38.446 63.8079 25.5528 63.9616C12.6984 64.1154 2.25183 62.4243 2.213 60.1951C2.17416 57.966 12.5819 56.0443 25.4751 55.8906C38.3295 55.7368 48.8149 57.4279 48.8149 59.6571Z" fill="#4A7085"/>
<path opacity="0.03" d="M48.1552 59.6186C48.194 61.7325 38.0969 63.5389 25.5921 63.6926C13.0872 63.8463 2.95128 62.2321 2.95128 60.1567C2.91245 58.0429 13.0095 56.198 25.5144 56.0827C37.9804 55.929 48.1163 57.5048 48.1552 59.6186Z" fill="#4A7085"/>
<path opacity="0.03" d="M47.4167 59.6187C47.4556 61.5788 37.6692 63.2699 25.5915 63.3852C13.5138 63.5389 3.68859 62.0784 3.68859 60.1183C3.64976 58.1582 13.4362 56.4671 25.5138 56.3518C37.5915 56.1981 47.3779 57.6585 47.4167 59.6187Z" fill="#4A7085"/>
<path opacity="0.03" d="M46.6009 59.5803C46.6009 61.4251 37.2028 63.0393 25.5523 63.1546C13.9019 63.3083 4.46496 61.9247 4.46496 60.0799C4.42613 58.2351 13.863 56.6209 25.4747 56.5056C37.1252 56.3518 46.562 57.7354 46.6009 59.5803Z" fill="#4A7085"/>
<path opacity="0.03" d="M45.8251 59.5033C45.8639 61.2712 36.7765 62.8086 25.5921 62.9239C14.3688 63.0392 5.28137 61.7324 5.28137 59.9645C5.24254 58.1965 14.3299 56.6592 25.5144 56.5439C36.6988 56.4286 45.7862 57.7738 45.8251 59.5033Z" fill="#4A7085"/>
<path opacity="0.03" d="M45.0094 59.4649C45.0483 61.156 36.3492 62.6549 25.592 62.7702C14.8347 62.8855 6.09681 61.6172 6.09681 59.9261C6.05797 58.235 14.7958 56.7361 25.5531 56.6208C36.2327 56.5055 44.9706 57.7738 45.0094 59.4649Z" fill="#4A7085"/>
<path opacity="0.03" d="M44.3486 59.4264C44.3874 61.0791 35.9603 62.5396 25.5525 62.6549C15.1447 62.7702 6.67871 61.5403 6.67871 59.8876C6.67871 58.235 15.0671 56.7745 25.4748 56.6592C35.8826 56.5055 44.3486 57.7354 44.3486 59.4264Z" fill="#4A7085"/>
<path opacity="0.03" d="M43.4947 59.4649C43.5336 61.0023 35.4947 62.3859 25.553 62.5012C15.6501 62.6165 7.57241 61.4635 7.57241 59.8877C7.53357 58.3504 15.5724 56.9667 25.5142 56.8514C35.4171 56.7361 43.4559 57.8892 43.4947 59.4649Z" fill="#4A7085"/>
<path opacity="0.03" d="M42.7569 59.4649C42.7569 60.9254 35.0676 62.2321 25.553 62.3474C16.0385 62.4627 8.27148 61.3482 8.27148 59.8877C8.27148 58.4272 15.9608 57.1205 25.4754 57.0052C35.0288 56.8899 42.7569 57.966 42.7569 59.4649Z" fill="#4A7085"/>
<path d="M17.7859 58.6577C17.4752 58.6577 17.2033 58.4271 17.1645 58.1196C16.1936 49.8179 22.6014 40.7092 22.8732 40.3248C23.0674 40.0558 23.4558 39.9789 23.7276 40.1711C23.9995 40.3632 24.0771 40.7476 23.8829 41.0166C23.8053 41.0935 17.4752 50.1638 18.4072 57.9659C18.4461 58.3118 18.2131 58.5808 17.8635 58.6192C17.8635 58.6577 17.8247 58.6577 17.7859 58.6577Z" fill="#3C2012"/>
<path fill-rule="evenodd" clip-rule="evenodd" d="M18.0969 57.7353C18.0969 57.7353 14.2911 56.0057 13.6309 58.3502C12.9707 60.6562 17.4367 60.0797 18.0192 60.0028C18.6406 59.9644 19.3008 58.4271 18.0969 57.7353Z" fill="#3C2012"/>
<path d="M36.621 58.6577C36.5821 58.6577 36.5821 58.6577 36.5433 58.6577C36.1938 58.6192 35.9608 58.3118 35.9996 58.0043C36.9705 50.1638 30.6015 41.1319 30.5239 41.0551C30.3297 40.786 30.4074 40.4017 30.6792 40.2095C30.9511 40.0174 31.3394 40.0942 31.5336 40.3633C31.8054 40.7476 38.2132 49.8564 37.2035 58.158C37.1647 58.4271 36.8928 58.6577 36.621 58.6577Z" fill="#3C2012"/>
<path fill-rule="evenodd" clip-rule="evenodd" d="M36.3106 57.7353C36.3106 57.7353 40.1164 56.0057 40.7766 58.3502C41.4368 60.6562 36.9708 60.0797 36.3882 60.0028C35.7669 59.9644 35.1067 58.4271 36.3106 57.7353Z" fill="#3C2012"/>
<path d="M47.9611 35.4823C46.4466 35.4823 44.466 34.9442 41.9029 33.8681C41.5922 33.7528 41.4369 33.3684 41.5922 33.061C41.7087 32.7535 42.097 32.5997 42.4077 32.7535C46.1747 34.3677 48.5048 34.7136 49.7087 33.8296C50.6407 33.1378 50.9902 31.6005 50.7184 29.1792C50.6796 28.8333 50.9126 28.5642 51.2621 28.5258C51.6116 28.4873 51.8834 28.718 51.9223 29.0639C52.233 31.9464 51.7669 33.8296 50.4077 34.8289C49.7864 35.2517 48.9708 35.4823 47.9611 35.4823Z" fill="#3C2012"/>
<path fill-rule="evenodd" clip-rule="evenodd" d="M49.5917 25.9123C49.5917 25.9123 50.7956 25.1052 51.4558 25.9507C52.116 26.7963 53.2034 28.7948 51.2228 29.7557C49.2422 30.7165 48.5432 30.0631 48.8151 29.1023C49.0481 28.1414 49.7859 28.4105 49.7859 28.4105C49.7859 28.4105 48.2714 26.95 49.5917 25.9123Z" fill="#3C2012"/>
<path fill-rule="evenodd" clip-rule="evenodd" d="M0.116313 42.7462C-0.233202 43.3611 0.232818 43.8992 0.232818 43.8992L63.1454 21.7614C63.4173 20.1088 62.5241 18.3793 62.5241 18.3793L0.116313 42.7462Z" fill="#EEC357"/>
<path fill-rule="evenodd" clip-rule="evenodd" d="M0 43.1305C0 43.2074 0 43.2843 0 43.3611L57.7476 21.7614L63.0291 19.7629C62.9515 19.5323 62.9126 19.3017 62.8349 19.1095L0.504854 42.9768L0 43.1305Z" fill="#F5E0B3"/>
<path fill-rule="evenodd" clip-rule="evenodd" d="M0.116505 42.7462C0 42.9768 0 43.169 0 43.3227L62.9903 19.6476C62.7961 18.9174 62.5243 18.4177 62.5243 18.4177L0.116505 42.7462Z" fill="#F3D99A"/>
<path fill-rule="evenodd" clip-rule="evenodd" d="M0.504985 44.0145C0.15547 44.6294 0.62149 45.1675 0.62149 45.1675L63.9613 25.4894C64.272 23.8368 63.3788 22.0688 63.3788 22.0688L0.504985 44.0145Z" fill="#EEC357"/>
<path fill-rule="evenodd" clip-rule="evenodd" d="M0.349609 44.3988C0.349609 44.4757 0.349609 44.5525 0.349609 44.6294L58.5244 25.2973L63.8448 23.4909C63.8059 23.2603 63.7283 23.0297 63.6506 22.8375L0.854464 44.2451L0.349609 44.3988Z" fill="#F5E0B3"/>
<path fill-rule="evenodd" clip-rule="evenodd" d="M0.504949 44.0145C0.388444 44.2066 0.349609 44.3988 0.349609 44.5525L63.8059 23.3372C63.6118 22.6069 63.3399 22.0688 63.3399 22.0688L0.504949 44.0145Z" fill="#F3D99A"/>
<path d="M4.69848 44.2836C4.46547 44.2836 4.27129 44.1683 4.15479 43.9377C0.853816 37.5961 2.32954 36.4431 5.70818 34.6367C6.32954 34.2908 7.02857 33.9449 7.76644 33.4837C8.03828 33.2916 8.42663 33.4069 8.62081 33.6759C8.81498 33.9449 8.69848 34.3293 8.42663 34.5214C7.64993 35.0211 6.9509 35.4054 6.29071 35.7513C3.33925 37.3271 2.36838 37.8652 5.281 43.438C5.43634 43.7455 5.31983 44.0914 5.00916 44.2452C4.89265 44.2452 4.81498 44.2836 4.69848 44.2836Z" fill="#3C2012"/>
<path fill-rule="evenodd" clip-rule="evenodd" d="M42.2911 16.7651C43.1455 17.7259 43.9222 19.0711 43.9222 24.4903C43.9222 28.6027 44.0387 35.2132 43.9999 40.2481C43.961 46.3974 43.6503 48.9341 37.1261 50.3561C31.8445 51.5091 18.8348 52.2394 12.5047 50.0871C10.1358 49.28 7.68917 46.1284 7.68917 42.8615C7.68917 40.4787 7.37849 19.4554 7.37849 19.4554C7.37849 19.4554 6.75713 14.9971 11.3785 13.7673C15.262 12.5374 35.262 9.96234 42.2911 16.7651Z" fill="#2E5753"/>
<path fill-rule="evenodd" clip-rule="evenodd" d="M40.7763 49.1262C39.8443 49.6259 38.6792 50.0102 37.1258 50.3561C31.8443 51.5091 18.8346 52.2393 12.5045 50.0871C11.1452 49.6259 9.74718 48.3576 8.81515 46.7818C8.5433 45.6288 8.27146 44.1299 8.23262 42.6309C8.19379 39.5562 7.7666 20.0704 7.7666 20.0704C7.7666 20.0704 8.03845 17.7259 9.51417 16.6882C10.9511 15.689 16.0773 19.8782 16.0773 19.8782L22.6016 21.1465C22.6016 21.1465 15.1841 21.9921 14.5627 24.5287C14.5627 24.5287 14.1355 41.2473 14.9511 45.1291C15.7666 49.0494 19.3783 49.7027 22.5627 49.7796C25.7472 49.8949 35.8443 50.9326 40.7763 49.1262Z" fill="#1E3E3B"/>
<path fill-rule="evenodd" clip-rule="evenodd" d="M34.7182 50.7788C28.5823 51.6628 18.0192 51.9703 12.5434 50.087C11.6891 49.7795 10.7959 49.1646 10.0192 48.3575C9.55313 46.9739 9.12595 45.2059 9.12595 43.438C9.12595 39.7099 8.62109 21.5308 8.62109 21.5308C8.62109 21.5308 8.8541 19.3017 9.5143 18.7251C10.1745 18.1486 14.757 20.7621 14.757 20.7621L14.6405 21.6077C14.6405 21.6077 12.6211 22.3379 12.4658 23.9521C12.3104 25.5663 12.4658 44.322 12.7376 46.1283C13.0094 47.9347 15.5337 50.356 20.3492 50.5482C24.1551 50.6635 30.3687 51.1247 34.7182 50.7788Z" fill="#15312E"/>
<path fill-rule="evenodd" clip-rule="evenodd" d="M28.6605 12.8448C32.1945 13.1522 37.3984 13.9209 39.6896 15.612C43.379 18.3023 45.7867 20.5699 35.9227 21.8382C26.0586 23.1065 7.76732 23.0297 7.96149 18.0717C8.078 13.9593 14.4081 13.2675 20.9324 12.8448C23.5731 12.691 26.0586 12.6142 28.6605 12.8448Z" fill="#718280"/>
<path fill-rule="evenodd" clip-rule="evenodd" d="M30.0197 13.306C33.2819 13.6519 37.243 14.3437 39.1459 15.6505C42.7188 18.1102 45.01 20.1472 35.4954 21.3002C25.9809 22.4532 8.38865 22.3763 8.54399 17.8796C8.69933 14.2668 14.5634 13.575 20.6993 13.1907C23.845 12.9985 26.8353 12.9601 30.0197 13.306Z" fill="white"/>
<path fill-rule="evenodd" clip-rule="evenodd" d="M36.3498 14.4206C37.476 14.7665 38.4469 15.1508 39.1459 15.6505C42.7188 18.1102 45.01 20.1472 35.4954 21.3002C25.9809 22.4532 8.38865 22.3764 8.54399 17.8796C8.69933 14.5743 13.5537 13.7288 19.0294 13.306C18.9129 13.3445 18.7576 13.4213 18.6022 13.5366C17.9809 13.8825 18.2527 13.9978 17.5537 13.9978C16.8547 13.9978 16.9323 13.8825 16.6217 13.9978C16.311 14.1131 15.5731 13.8825 15.612 14.3053C15.6508 14.7665 16.4275 14.6896 15.7285 14.8434C15.0294 14.9587 15.3401 14.9587 15.0294 14.9587C14.7187 14.9587 14.0586 15.074 14.0586 15.074C14.0586 15.074 13.3595 14.6128 13.8255 15.074C14.2916 15.5352 14.4081 15.5352 13.6702 15.6505C12.8158 15.8042 13.1265 15.612 12.5828 15.9964C12.0391 16.3423 11.8838 16.4576 11.8838 16.4576C11.8838 16.4576 12.6605 16.2654 12.6217 16.7266C12.5828 17.1878 12.6605 16.8419 12.6217 17.2647C12.5828 17.649 13.3207 16.7266 13.2819 17.5722C13.243 18.4177 12.8935 18.4561 13.243 18.4946C13.5925 18.533 12.8935 17.7643 14.1362 18.1487C15.4178 18.4946 15.612 18.1102 15.7673 18.6483C15.9226 19.1864 16.4275 18.9173 16.8158 19.3785C17.2042 19.8398 17.709 19.7629 18.0197 19.6476C18.2916 19.5323 17.5537 18.9942 18.4857 19.5323C19.4178 20.0704 20.2333 18.802 20.9323 19.3785C21.6314 19.9551 22.9129 20.2241 22.9129 20.2241C22.9129 20.2241 24.1945 19.4938 24.6993 20.1472C25.2042 20.7622 26.5634 20.2241 26.9906 20.3778C27.4178 20.5316 28.2333 20.5316 29.0488 19.7629C29.8644 18.9942 30.7576 18.6867 31.1848 18.9942C31.612 19.3017 31.3789 19.2632 32.544 19.1479C33.709 18.9942 34.0197 18.9942 34.0197 18.9942C34.0197 18.9942 34.4469 18.6099 35.0683 18.7252C35.6896 18.8405 36.1556 17.9949 36.6217 18.264C37.0488 18.533 37.5149 17.9565 37.9809 18.1871C38.4081 18.4177 38.9129 18.3024 39.3401 18.3024C39.7285 18.3024 40.0391 18.4946 40.0391 18.1871C40.0391 17.8796 41.243 18.3793 40.0003 17.7259C38.7576 17.111 38.9518 16.6113 38.9518 16.6113C38.9518 16.6113 39.9226 16.4192 38.9129 16.0733C37.9032 15.7274 37.8644 15.5352 37.476 15.4967C37.1265 15.4583 37.709 15.8427 36.8547 14.9587C36.6217 14.7665 36.5052 14.5743 36.3498 14.4206Z" fill="#F1EFE5"/>
<path fill-rule="evenodd" clip-rule="evenodd" d="M40.583 16.6497C43.1462 18.6482 43.6898 20.3009 35.5345 21.3002C26.0199 22.4532 8.42771 22.3763 8.58305 17.8796C8.66072 15.343 11.5733 14.2284 15.3792 13.6903C15.1462 13.9209 14.8355 14.1515 14.6025 14.3437C13.8646 14.8818 13.0102 14.5358 13.0102 14.5358C13.0102 14.5358 12.9326 14.8049 12.5831 15.1892C12.1947 15.612 11.8064 15.1892 11.8064 15.1892C11.8064 15.1892 10.9908 15.612 11.2627 16.0348C11.5345 16.4575 11.185 16.3807 10.8355 16.6497C10.5248 16.9572 10.1365 18.6098 10.7578 18.4945C11.418 18.3792 11.6898 17.6105 12.0394 18.1102C12.35 18.6098 11.884 19.6091 12.9326 19.5322C13.9811 19.4554 15.1073 18.9942 15.185 19.686C15.2627 20.3778 16.5831 20.9543 17.8258 20.7621C19.0685 20.5315 21.5151 20.6084 21.5151 20.9543C21.5151 21.3002 21.8258 20.9543 23.185 21.1849C24.5442 21.4155 26.6801 21.108 27.3015 21.3386C27.9229 21.5692 29.7869 21.7614 29.7093 20.9927C29.6316 20.224 30.3306 19.7244 31.2238 20.0703C32.117 20.4546 33.0102 20.1472 33.3209 20.1472C33.6316 20.1472 33.8258 19.5322 34.9131 19.6475C36.0005 19.7628 36.2335 20.0703 36.2335 20.0703C36.2335 20.0703 36.3112 19.5707 37.0879 19.5707C37.8646 19.5707 38.6413 19.5322 38.8355 19.6475C39.0297 19.7628 39.418 18.9557 40.35 19.0326C41.2821 19.1095 41.3209 19.8397 41.3597 18.9557C41.3986 18.0717 41.6316 18.1486 41.2432 17.5721C41.0491 17.3415 40.8161 16.9956 40.583 16.6497Z" fill="#E7E5D8"/>
<path fill-rule="evenodd" clip-rule="evenodd" d="M13.9036 15.9963C13.8259 16.0348 13.3211 15.9963 13.3211 16.3807C13.2823 16.765 13.3988 16.8803 13.5153 16.8803C13.6318 16.8803 14.059 16.8803 13.9425 16.765C13.8648 16.6497 13.5929 16.6497 13.7483 16.4575C13.9036 16.2654 14.3308 16.0348 14.3308 16.0348L13.9036 15.9963Z" fill="#F1EFE5"/>
<path fill-rule="evenodd" clip-rule="evenodd" d="M14.7968 17.1877C14.7968 17.1877 14.5249 17.3799 15.224 17.4952C15.923 17.6105 15.923 17.3799 15.923 17.3799C15.923 17.3799 16.2337 17.9949 15.4181 17.9949C14.6414 17.9949 14.4084 17.3415 14.7968 17.1877Z" fill="#F1EFE5"/>
<path fill-rule="evenodd" clip-rule="evenodd" d="M16.7377 18.1871C16.7377 18.1871 16.4658 18.3793 17.1649 18.4946C17.8639 18.6099 17.8639 18.3409 17.8639 18.3409C17.8639 18.3409 18.1746 18.9558 17.359 18.9558C16.5435 18.9942 16.3493 18.3409 16.7377 18.1871Z" fill="#F1EFE5"/>
<path fill-rule="evenodd" clip-rule="evenodd" d="M15.4564 15.0355C15.3787 15.074 14.8738 15.0355 14.8738 15.4199C14.835 15.8042 14.9515 15.9195 15.068 15.9195C15.1845 15.9195 15.6117 15.9195 15.4952 15.8042C15.4175 15.6889 15.1457 15.6889 15.301 15.4967C15.4564 15.3046 15.8835 15.074 15.8835 15.074L15.4564 15.0355Z" fill="#F1EFE5"/>
<path fill-rule="evenodd" clip-rule="evenodd" d="M38.5242 16.8419C38.5242 16.8419 38.796 17.0341 38.097 17.1494C37.3979 17.2647 37.3979 16.9957 37.3979 16.9957C37.3979 16.9957 37.0873 17.6106 37.9028 17.6106C38.6795 17.649 38.8737 16.9957 38.5242 16.8419Z" fill="#F1EFE5"/>
<path fill-rule="evenodd" clip-rule="evenodd" d="M36 17.4183C36 17.4183 35.9612 17.8411 35.6505 17.9949C35.3398 18.1486 34.835 18.1486 34.835 18.1486C34.835 18.1486 35.3787 17.918 35.534 17.7642C35.6893 17.5721 36 17.2646 36 17.4183Z" fill="#F1EFE5"/>
<path fill-rule="evenodd" clip-rule="evenodd" d="M37.5532 16.2654C37.5532 16.2654 37.5532 16.5345 37.3979 16.6498C37.2426 16.7266 36.9707 16.7651 36.9707 16.7651C36.9707 16.7651 37.2426 16.6113 37.3202 16.496C37.3979 16.3807 37.5532 16.1501 37.5532 16.2654Z" fill="#F1EFE5"/>
<path fill-rule="evenodd" clip-rule="evenodd" d="M15.2622 27.0268C15.2622 27.0268 15.1846 43.9761 16.1166 46.013C17.0486 48.05 19.4564 48.934 21.9807 49.1646C24.4661 49.3952 25.903 49.4721 25.903 49.4721C25.903 49.4721 26.9127 49.1646 25.3205 48.4344C23.7671 47.7041 17.3981 47.8963 17.0486 44.2067C16.6991 40.4786 15.6894 29.794 15.7671 28.4104C15.8447 27.0268 15.1846 25.5663 15.2622 27.0268Z" fill="#416260"/>
<path fill-rule="evenodd" clip-rule="evenodd" d="M41.165 21.7614C41.165 21.7614 42.563 20.8774 42.796 22.2226C43.0291 23.6062 43.2621 29.256 43.4174 34.7904C43.5339 40.3249 43.0679 45.3597 42.0193 46.5896C41.0096 47.8194 40.3883 46.2437 40.932 44.6294C41.4757 42.9768 41.4757 40.248 41.398 35.1363C41.3203 30.0246 41.2815 24.7592 40.6213 24.029C39.9611 23.2603 39.6892 22.4532 41.165 21.7614Z" fill="#416260"/>
<path fill-rule="evenodd" clip-rule="evenodd" d="M37.7082 22.7222C38.679 22.6069 38.7179 23.2603 38.0188 23.5294C37.3198 23.7984 34.9897 24.1443 34.3684 24.1443C33.747 24.1443 34.213 23.145 34.9509 22.9913C35.6887 22.876 37.7082 22.7222 37.7082 22.7222Z" fill="#416260"/>
<path fill-rule="evenodd" clip-rule="evenodd" d="M41.7474 22.0689C41.7474 22.0689 42.5241 21.4924 42.6017 22.876C42.6794 24.2597 43.3008 33.9449 43.1454 38.0189C42.9901 42.0929 42.6017 45.5135 42.0969 46.1284C41.592 46.7049 41.5532 46.1284 41.7862 45.1676C41.9804 44.2067 42.3299 36.6353 42.2911 33.8681C42.2522 31.1008 41.9415 24.8362 41.7862 23.9906C41.6309 23.1451 41.126 22.2227 41.7474 22.0689Z" fill="#536D6A"/>
<path fill-rule="evenodd" clip-rule="evenodd" d="M41.7474 22.0689C41.7474 22.0689 42.5241 21.4924 42.6018 22.876C42.6795 24.2597 43.3008 33.9449 43.1455 38.0189C42.9901 42.0929 42.6018 45.5135 42.0969 46.1284C41.7474 46.5896 41.6309 46.359 41.6698 45.8209C42.0193 44.9754 42.33 43.8224 42.5241 42.2082C43.1455 37.0965 42.4465 26.1045 42.1358 24.1444C41.9416 22.9529 41.6698 22.4917 41.4756 22.2995C41.5144 22.1842 41.5921 22.1074 41.7474 22.0689Z" fill="#627976"/>
<path fill-rule="evenodd" clip-rule="evenodd" d="M17.0869 31.7542C17.0869 31.7542 17.7859 29.7172 19.9995 30.0631C22.2131 30.409 22.6403 31.8695 22.6403 31.8695C22.5626 28.6795 17.3588 28.2952 17.0869 31.7542Z" fill="#3C2012"/>
<path fill-rule="evenodd" clip-rule="evenodd" d="M19.7275 31.7926C18.7178 31.831 17.9411 32.8687 17.9799 34.1755C18.0187 35.4438 18.8731 36.4815 19.8828 36.4431C20.8925 36.4046 21.6692 35.3669 21.6304 34.0602C21.5527 32.7919 20.6984 31.7926 19.7275 31.7926Z" fill="white"/>
<path fill-rule="evenodd" clip-rule="evenodd" d="M19.533 31.9079C18.6787 31.9463 18.0185 32.8303 18.0573 33.9064C18.0961 34.9826 18.7952 35.8665 19.6495 35.8281C20.5039 35.7897 21.1641 34.9057 21.1253 33.8296C21.1253 32.715 20.3874 31.8694 19.533 31.9079Z" fill="#3C2012"/>
<path fill-rule="evenodd" clip-rule="evenodd" d="M18.2123 33.7527C18.2123 33.7527 18.29 34.4829 18.9113 35.021C19.5327 35.5591 20.2705 35.4822 20.2705 35.4822C20.2705 35.4822 19.3385 35.7897 18.8336 35.3669C18.3676 34.9441 18.0569 34.137 18.2123 33.7527Z" fill="#878787"/>
<path fill-rule="evenodd" clip-rule="evenodd" d="M18.2127 33.7527C18.2127 33.7527 18.2903 34.4829 18.9117 35.021C19.5331 35.5591 20.2709 35.4822 20.2709 35.4822C20.2709 35.4822 20.2321 35.4822 20.1544 35.5206C19.8826 35.5591 19.4942 35.5591 19.1835 35.4822C18.834 35.3669 18.5233 35.021 18.3292 34.5982C18.1738 34.2523 18.1738 33.9449 18.1738 33.8296C18.2127 33.7911 18.2127 33.7911 18.2127 33.7527Z" fill="#706F6F"/>
<path fill-rule="evenodd" clip-rule="evenodd" d="M18.251 33.868C18.2898 34.0986 18.4452 34.5983 18.9112 35.0211C19.4549 35.4823 20.1151 35.4823 20.2704 35.4823C20.0374 35.5591 19.4937 35.5207 19.183 35.4054C18.8723 35.2517 18.484 34.7904 18.3675 34.483C18.2898 34.2908 18.251 34.0218 18.251 33.868Z" fill="#575756"/>
<path fill-rule="evenodd" clip-rule="evenodd" d="M18.3291 34.137C18.4068 34.406 18.6009 34.7519 18.9505 35.0209C19.4165 35.4053 19.9602 35.4821 20.1932 35.4821C19.9602 35.5206 19.5718 35.4821 19.3388 35.4053C19.1058 35.3284 18.7563 34.9825 18.5621 34.7135C18.4068 34.5597 18.3291 34.2907 18.3291 34.137Z" fill="#3C3C3B"/>
<path fill-rule="evenodd" clip-rule="evenodd" d="M19.6497 32.2922C19.3778 32.4075 19.3002 32.7534 19.4167 33.0993C19.572 33.4452 19.8827 33.6374 20.1546 33.5221C20.4264 33.4068 20.5041 33.0609 20.3876 32.715C20.2711 32.3691 19.9215 32.1769 19.6497 32.2922Z" fill="white"/>
<path fill-rule="evenodd" clip-rule="evenodd" d="M39.1061 30.5627C39.1061 30.5627 38.3294 28.5642 36.1158 28.987C33.9022 29.4482 33.5527 30.9086 33.5527 30.9086C33.5527 27.7187 38.7178 27.1037 39.1061 30.5627Z" fill="#3C2012"/>
<path fill-rule="evenodd" clip-rule="evenodd" d="M19.7669 37.3655C19.1843 37.404 18.7183 37.7114 18.7571 38.0573C18.796 38.4032 19.3008 38.6338 19.8834 38.557C20.4659 38.5185 20.9319 38.2111 20.8931 37.8652C20.8931 37.5577 20.3882 37.3271 19.7669 37.3655Z" fill="#EA5160"/>
<path fill-rule="evenodd" clip-rule="evenodd" d="M36.6988 36.4431C36.194 36.4816 35.8056 36.7506 35.8445 37.0196C35.8833 37.2887 36.3105 37.4808 36.7765 37.4424C37.2814 37.404 37.6697 37.1349 37.6309 36.8659C37.6309 36.5969 37.2037 36.4047 36.6988 36.4431Z" fill="#EA5160"/>
<path fill-rule="evenodd" clip-rule="evenodd" d="M36.4267 30.9087C35.417 30.9471 34.6403 31.9848 34.6791 33.2916C34.718 34.5599 35.5723 35.5976 36.582 35.5591C37.5917 35.5207 38.3684 34.483 38.3296 33.1763C38.2908 31.8695 37.4364 30.8702 36.4267 30.9087Z" fill="white"/>
<path fill-rule="evenodd" clip-rule="evenodd" d="M36.2713 30.9856C35.4169 31.024 34.7567 31.908 34.7956 32.9841C34.8344 34.0603 35.5334 34.9442 36.3878 34.9058C37.2422 34.8674 37.9024 33.9834 37.8635 32.9073C37.8247 31.8311 37.1257 30.9471 36.2713 30.9856Z" fill="#3C2012"/>
<path fill-rule="evenodd" clip-rule="evenodd" d="M34.9512 32.8688C34.9512 32.8688 35.0289 33.599 35.6503 34.1371C36.2716 34.6752 37.0095 34.5983 37.0095 34.5983C37.0095 34.5983 36.0774 34.9058 35.5726 34.483C35.1066 34.0218 34.7571 33.2147 34.9512 32.8688Z" fill="#878787"/>
<path fill-rule="evenodd" clip-rule="evenodd" d="M34.9509 32.8688C34.9509 32.8688 35.0286 33.599 35.65 34.1371C36.2713 34.6752 37.0092 34.5983 37.0092 34.5983C37.0092 34.5983 36.9704 34.5983 36.8927 34.6367C36.6208 34.6752 36.2325 34.6752 35.9218 34.5983C35.5723 34.483 35.2616 34.1371 35.0674 33.7143C34.9121 33.3684 34.9121 33.0609 34.9121 32.9456C34.9509 32.8688 34.9509 32.8688 34.9509 32.8688Z" fill="#706F6F"/>
<path fill-rule="evenodd" clip-rule="evenodd" d="M34.9512 32.9457C34.99 33.1763 35.1453 33.6759 35.6114 34.0987C36.155 34.5599 36.8152 34.5599 36.9706 34.5599C36.7376 34.6368 36.1939 34.5983 35.8832 34.483C35.5725 34.3293 35.1842 33.8681 35.0677 33.5606C34.99 33.3685 34.99 33.0994 34.9512 32.9457Z" fill="#575756"/>
<path fill-rule="evenodd" clip-rule="evenodd" d="M35.0293 33.2147C35.107 33.4838 35.3011 33.8297 35.6507 34.0987C36.1167 34.483 36.6604 34.5599 36.8934 34.5599C36.6604 34.5983 36.272 34.5599 36.039 34.483C35.806 34.4062 35.4565 34.0603 35.2623 33.7912C35.1458 33.6375 35.0681 33.4069 35.0293 33.2147Z" fill="#3C3C3B"/>
<path fill-rule="evenodd" clip-rule="evenodd" d="M36.388 31.3699C36.1161 31.4852 36.0385 31.8312 36.155 32.1771C36.3103 32.523 36.621 32.7151 36.8928 32.5998C37.1647 32.4845 37.2423 32.1386 37.1258 31.7927C36.9705 31.4468 36.6598 31.2546 36.388 31.3699Z" fill="white"/>
<path fill-rule="evenodd" clip-rule="evenodd" d="M26.0193 11.1537C27.0291 11.1537 27.8834 11.9224 27.8834 12.8832C27.8834 13.844 27.0291 14.6127 26.0193 14.6127C25.0096 14.6127 24.1553 13.844 24.1553 12.8832C24.1553 11.9224 24.9708 11.1537 26.0193 11.1537Z" fill="#DB3715"/>
<path fill-rule="evenodd" clip-rule="evenodd" d="M26.0579 11.269C27.0676 11.269 27.8443 12.0377 27.8443 12.9601C27.8443 13.8825 27.0288 14.6512 26.0579 14.6512C25.0482 14.6512 24.2715 13.8825 24.2715 12.9601C24.2715 11.9993 25.087 11.269 26.0579 11.269Z" fill="#BE2218"/>
<path fill-rule="evenodd" clip-rule="evenodd" d="M26.7961 11.4612C27.3398 11.7302 27.7281 12.2683 27.7281 12.9217C27.7281 13.8056 26.9514 14.5359 25.9805 14.5359C25.4369 14.5359 24.9708 14.3053 24.6602 13.9594C24.8932 14.0747 25.165 14.1515 25.4369 14.1515C26.4077 14.1515 27.1844 13.4213 27.1844 12.5373C27.2233 12.0761 27.0679 11.7302 26.7961 11.4612Z" fill="#AC2014"/>
<path fill-rule="evenodd" clip-rule="evenodd" d="M25.6314 11.4612C26.0198 11.4612 26.3693 11.7302 26.3693 12.0761C26.3693 12.422 26.0586 12.6911 25.6314 12.6911C25.2431 12.6911 24.8936 12.422 24.8936 12.0761C24.8936 11.7302 25.2431 11.4612 25.6314 11.4612Z" fill="#DB3715"/>
<path fill-rule="evenodd" clip-rule="evenodd" d="M26.9127 11.9608C26.9127 11.9608 27.4564 12.4604 27.3399 12.9985C27.2234 13.5366 27.6894 13.2291 27.6894 12.8832C27.6894 12.5757 27.6506 12.2298 27.4952 12.0761C27.3399 11.9223 26.7962 11.7686 26.9127 11.9608Z" fill="#DB3715"/>
<path fill-rule="evenodd" clip-rule="evenodd" d="M25.5531 11.7687C25.7084 11.7687 25.8249 11.884 25.8249 11.9993C25.8249 12.153 25.7084 12.2299 25.5531 12.2299C25.3978 12.2299 25.2812 12.1146 25.2812 11.9993C25.2812 11.884 25.3978 11.7687 25.5531 11.7687Z" fill="#E26037"/>
<path fill-rule="evenodd" clip-rule="evenodd" d="M36.0771 11.7302C37.281 11.7302 38.2519 12.6526 38.2519 13.8056C38.2519 14.9587 37.281 15.8811 36.0771 15.8811C34.8732 15.8811 33.9023 14.9587 33.9023 13.8056C33.9412 12.6526 34.9121 11.7302 36.0771 11.7302Z" fill="#DB3715"/>
<path fill-rule="evenodd" clip-rule="evenodd" d="M36.1547 11.8839C37.3198 11.8839 38.2518 12.7679 38.2518 13.8825C38.2518 14.997 37.3198 15.881 36.1547 15.881C34.9897 15.881 34.0576 14.997 34.0576 13.8825C34.0965 12.7679 35.0285 11.8839 36.1547 11.8839Z" fill="#BE2218"/>
<path fill-rule="evenodd" clip-rule="evenodd" d="M37.0479 12.0762C37.7081 12.3836 38.1353 13.037 38.1353 13.8057C38.1353 14.8818 37.2421 15.7274 36.1159 15.7274C35.4945 15.7274 34.9508 15.4583 34.5625 15.0356C34.8343 15.1893 35.145 15.2662 35.4945 15.2662C36.6208 15.2662 37.514 14.4206 37.514 13.3445C37.514 12.8448 37.3198 12.4221 37.0479 12.0762Z" fill="#AC2014"/>
<path fill-rule="evenodd" clip-rule="evenodd" d="M35.6503 12.1145C36.1163 12.1145 36.5046 12.4604 36.5046 12.8447C36.5046 13.2291 36.1163 13.575 35.6503 13.575C35.1842 13.575 34.7959 13.2291 34.7959 12.8447C34.7959 12.4604 35.1842 12.1145 35.6503 12.1145Z" fill="#DB3715"/>
<path fill-rule="evenodd" clip-rule="evenodd" d="M35.5724 12.4989C35.7666 12.4989 35.8831 12.6142 35.8831 12.8064C35.8831 12.9985 35.7277 13.1138 35.5724 13.1138C35.3782 13.1138 35.2617 12.9985 35.2617 12.8064C35.2617 12.6142 35.3782 12.4989 35.5724 12.4989Z" fill="#E26037"/>
<path fill-rule="evenodd" clip-rule="evenodd" d="M33.3583 12.2299C34.5622 12.2299 35.5331 13.1523 35.5331 14.3053C35.5331 15.4583 34.5622 16.3807 33.3583 16.3807C32.1545 16.3807 31.1836 15.4583 31.1836 14.3053C31.1836 13.1523 32.1545 12.2299 33.3583 12.2299Z" fill="#C8231A"/>
<path fill-rule="evenodd" clip-rule="evenodd" d="M33.436 12.3835C34.601 12.3835 35.533 13.2675 35.533 14.3821C35.533 15.4967 34.601 16.3806 33.436 16.3806C32.2709 16.3806 31.3389 15.4967 31.3389 14.3821C31.3389 13.2675 32.2709 12.3835 33.436 12.3835Z" fill="#AD2419"/>
<path fill-rule="evenodd" clip-rule="evenodd" d="M34.2904 12.5758C34.9505 12.9217 35.4166 13.5751 35.4166 14.3053C35.4166 15.3815 34.5234 16.227 33.3971 16.227C32.7758 16.227 32.2321 15.958 31.8438 15.5352C32.1156 15.6889 32.4263 15.7658 32.7758 15.7658C33.902 15.7658 34.7952 14.9203 34.7952 13.8441C34.7952 13.3445 34.601 12.9217 34.2904 12.5758Z" fill="#941D0E"/>
<path fill-rule="evenodd" clip-rule="evenodd" d="M32.9315 12.6141C33.3975 12.6141 33.7859 12.96 33.7859 13.3444C33.7859 13.7287 33.3975 14.0746 32.9315 14.0746C32.4655 14.0746 32.0771 13.7287 32.0771 13.3444C32.0771 12.96 32.4655 12.6141 32.9315 12.6141Z" fill="#BE2218"/>
<path fill-rule="evenodd" clip-rule="evenodd" d="M34.4455 13.2292C34.4455 13.2292 35.0669 13.8057 34.9504 14.459C34.795 15.1124 35.3387 14.7281 35.3387 14.3437C35.3387 13.9594 35.2999 13.5751 35.1057 13.3829C34.9115 13.1907 34.2513 12.9601 34.4455 13.2292Z" fill="#BE2218"/>
<path fill-rule="evenodd" clip-rule="evenodd" d="M21.6699 11.4996C22.8738 11.4996 23.8446 12.422 23.8446 13.5751C23.8446 14.7281 22.8738 15.6505 21.6699 15.6505C20.466 15.6505 19.4951 14.7281 19.4951 13.5751C19.4951 12.422 20.466 11.4996 21.6699 11.4996Z" fill="#DB3715"/>
<path fill-rule="evenodd" clip-rule="evenodd" d="M21.7475 11.6533C22.9125 11.6533 23.8446 12.5373 23.8446 13.6519C23.8446 14.7664 22.9125 15.6504 21.7475 15.6504C20.5824 15.6504 19.6504 14.7664 19.6504 13.6519C19.6504 12.5373 20.5824 11.6533 21.7475 11.6533Z" fill="#BE2218"/>
<path fill-rule="evenodd" clip-rule="evenodd" d="M22.6016 11.8456C23.2618 12.1915 23.689 12.8064 23.689 13.5751C23.689 14.6512 22.7958 15.4968 21.6696 15.4968C21.0482 15.4968 20.5046 15.2277 20.1162 14.805C20.3881 14.9587 20.6987 15.0356 21.0483 15.0356C22.1745 15.0356 23.0677 14.19 23.0677 13.1139C23.0677 12.6143 22.9123 12.1915 22.6016 11.8456Z" fill="#AC2014"/>
<path fill-rule="evenodd" clip-rule="evenodd" d="M21.204 11.8839C21.67 11.8839 22.0583 12.2298 22.0583 12.6142C22.0583 13.0369 21.67 13.3444 21.204 13.3444C20.738 13.3444 20.3496 12.9985 20.3496 12.6142C20.3884 12.2298 20.738 11.8839 21.204 11.8839Z" fill="#DB3715"/>
<path fill-rule="evenodd" clip-rule="evenodd" d="M22.757 12.4989C22.757 12.4989 23.3784 13.0754 23.2619 13.7288C23.1065 14.3822 23.6502 13.9978 23.6502 13.6135C23.6502 13.2292 23.6114 12.8448 23.4172 12.6527C23.223 12.4221 22.5629 12.2299 22.757 12.4989Z" fill="#DB3715"/>
<path fill-rule="evenodd" clip-rule="evenodd" d="M21.1261 12.2683C21.3203 12.2683 21.4368 12.3836 21.4368 12.5758C21.4368 12.7295 21.2815 12.8832 21.1261 12.8832C20.9319 12.8832 20.8154 12.7679 20.8154 12.5758C20.8154 12.3836 20.9708 12.2683 21.1261 12.2683Z" fill="#E26037"/>
<path fill-rule="evenodd" clip-rule="evenodd" d="M23.1455 12.8064C24.3493 12.8064 25.3202 13.7288 25.3202 14.8818C25.3202 16.0348 24.3493 16.9572 23.1455 16.9572C21.9416 16.9572 20.9707 16.0348 20.9707 14.8818C20.9707 13.7672 21.9416 12.8064 23.1455 12.8064Z" fill="#DB3715"/>
<path fill-rule="evenodd" clip-rule="evenodd" d="M23.2231 12.9601C24.3881 12.9601 25.3202 13.8441 25.3202 14.9586C25.3202 16.0732 24.3881 16.9572 23.2231 16.9572C22.058 16.9572 21.126 16.0732 21.126 14.9586C21.126 13.8441 22.058 12.9601 23.2231 12.9601Z" fill="#BE2218"/>
<path fill-rule="evenodd" clip-rule="evenodd" d="M24.0772 13.1907C24.7374 13.4981 25.1646 14.1515 25.1646 14.9202C25.1646 15.9963 24.2714 16.8419 23.1452 16.8419C22.5238 16.8419 21.9801 16.5728 21.5918 16.1501C21.8636 16.3038 22.1743 16.3807 22.5238 16.3807C23.65 16.3807 24.5433 15.5351 24.5433 14.459C24.5433 13.9593 24.3879 13.5366 24.0772 13.1907Z" fill="#AC2014"/>
<path fill-rule="evenodd" clip-rule="evenodd" d="M22.6796 13.2291C23.1456 13.2291 23.5339 13.575 23.5339 13.9594C23.5339 14.3821 23.1456 14.6896 22.6796 14.6896C22.2135 14.6896 21.8252 14.3437 21.8252 13.9594C21.864 13.5366 22.2135 13.2291 22.6796 13.2291Z" fill="#DB3715"/>
<path fill-rule="evenodd" clip-rule="evenodd" d="M24.2326 13.8057C24.2326 13.8057 24.854 14.3822 24.7375 15.0356C24.5821 15.689 25.1258 15.3046 25.1258 14.9203C25.1258 14.5359 25.087 14.1516 24.8928 13.9594C24.6986 13.7673 24.0384 13.5751 24.2326 13.8057Z" fill="#DB3715"/>
<path fill-rule="evenodd" clip-rule="evenodd" d="M22.6017 13.5751C22.7959 13.5751 22.9124 13.6904 22.9124 13.8825C22.9124 14.0363 22.757 14.19 22.6017 14.19C22.4075 14.19 22.291 14.0747 22.291 13.8825C22.291 13.7288 22.4464 13.5751 22.6017 13.5751Z" fill="#E26037"/>
<path fill-rule="evenodd" clip-rule="evenodd" d="M26.2519 13.5751C27.4558 13.5751 28.4267 14.4975 28.4267 15.6505C28.4267 16.8035 27.4558 17.7259 26.2519 17.7259C25.048 17.7259 24.0771 16.8035 24.0771 15.6505C24.0771 14.4975 25.048 13.5751 26.2519 13.5751Z" fill="#C8231A"/>
<path fill-rule="evenodd" clip-rule="evenodd" d="M26.3295 13.7288C27.4946 13.7288 28.4266 14.6127 28.4266 15.7273C28.4266 16.8419 27.4946 17.7259 26.3295 17.7259C25.1645 17.7259 24.2324 16.8419 24.2324 15.7273C24.2324 14.6127 25.1645 13.7288 26.3295 13.7288Z" fill="#AD2419"/>
<path fill-rule="evenodd" clip-rule="evenodd" d="M27.1837 13.921C27.8439 14.2285 28.2711 14.8819 28.2711 15.6505C28.2711 16.7267 27.3779 17.5722 26.2516 17.5722C25.6303 17.5722 25.0866 17.3032 24.6982 16.8804C24.9701 17.0341 25.2808 17.111 25.6303 17.111C26.7565 17.111 27.6497 16.2655 27.6497 15.1893C27.6885 14.7281 27.4944 14.2669 27.1837 13.921Z" fill="#AC2014"/>
<path fill-rule="evenodd" clip-rule="evenodd" d="M25.8251 13.9594C26.2911 13.9594 26.6794 14.3053 26.6794 14.6896C26.6794 15.0739 26.2911 15.4198 25.8251 15.4198C25.3591 15.4198 24.9707 15.0739 24.9707 14.6896C24.9707 14.3053 25.3591 13.9594 25.8251 13.9594Z" fill="#BE2218"/>
<path fill-rule="evenodd" clip-rule="evenodd" d="M27.3391 14.5744C27.3391 14.5744 27.9604 15.1509 27.8439 15.8042C27.6886 16.4576 28.2323 16.0733 28.2323 15.6889C28.2323 15.3046 28.1934 14.9203 27.9993 14.7281C27.8051 14.5359 27.1449 14.3053 27.3391 14.5744Z" fill="#BE2218"/>
<path fill-rule="evenodd" clip-rule="evenodd" d="M24.0771 16.0732C25.281 16.0732 26.2519 16.9957 26.2519 18.1487C26.2519 19.3017 25.281 20.2241 24.0771 20.2241C22.8732 20.2241 21.9023 19.3017 21.9023 18.1487C21.9023 16.9957 22.8732 16.0732 24.0771 16.0732Z" fill="#DB3715"/>
<path fill-rule="evenodd" clip-rule="evenodd" d="M24.1547 16.2269C25.3198 16.2269 26.2518 17.1109 26.2518 18.2255C26.2518 19.3401 25.3198 20.224 24.1547 20.224C22.9897 20.224 22.0576 19.3401 22.0576 18.2255C22.0576 17.1109 22.9897 16.2269 24.1547 16.2269Z" fill="#BE2218"/>
<path fill-rule="evenodd" clip-rule="evenodd" d="M25.0089 16.4192C25.6691 16.7267 26.0963 17.38 26.0963 18.1487C26.0963 19.2248 25.203 20.0704 24.0768 20.0704C23.4555 20.0704 22.9118 19.8013 22.5234 19.3786C22.7953 19.5323 23.106 19.6092 23.4555 19.6092C24.5817 19.6092 25.4749 18.7636 25.4749 17.6875C25.4749 17.1879 25.3196 16.7651 25.0089 16.4192Z" fill="#AC2014"/>
<path fill-rule="evenodd" clip-rule="evenodd" d="M23.6503 16.4575C24.1163 16.4575 24.5046 16.8034 24.5046 17.1878C24.5046 17.6105 24.1163 17.918 23.6503 17.918C23.1842 17.918 22.7959 17.5721 22.7959 17.1878C22.7959 16.765 23.1842 16.4575 23.6503 16.4575Z" fill="#DB3715"/>
<path fill-rule="evenodd" clip-rule="evenodd" d="M25.1642 17.0341C25.1642 17.0341 25.7855 17.6106 25.669 18.264C25.5137 18.9173 26.0962 18.533 26.0962 18.1487C26.0962 17.7643 26.0574 17.38 25.8632 17.1878C25.6302 16.9957 24.97 16.8035 25.1642 17.0341Z" fill="#DB3715"/>
<path fill-rule="evenodd" clip-rule="evenodd" d="M23.5333 16.8419C23.7275 16.8419 23.844 16.9572 23.844 17.1494C23.844 17.3416 23.6887 17.4569 23.5333 17.4569C23.3392 17.4569 23.2227 17.3416 23.2227 17.1494C23.2227 16.9572 23.378 16.8419 23.5333 16.8419Z" fill="#E26037"/>
<path fill-rule="evenodd" clip-rule="evenodd" d="M27.6503 16.8035C28.8542 16.8035 29.8251 17.7259 29.8251 18.8789C29.8251 20.0319 28.8542 20.9543 27.6503 20.9543C26.4465 20.9543 25.4756 20.0319 25.4756 18.8789C25.4756 17.7259 26.4465 16.8035 27.6503 16.8035Z" fill="#DB3715"/>
<path fill-rule="evenodd" clip-rule="evenodd" d="M27.7279 16.9572C28.893 16.9572 29.825 17.8411 29.825 18.9557C29.825 20.0703 28.893 20.9543 27.7279 20.9543C26.5629 20.9543 25.6309 20.0703 25.6309 18.9557C25.6309 17.8411 26.5629 16.9572 27.7279 16.9572Z" fill="#BE2218"/>
<path fill-rule="evenodd" clip-rule="evenodd" d="M28.5821 17.1494C29.2423 17.4569 29.6695 18.1103 29.6695 18.8789C29.6695 19.9551 28.7763 20.8006 27.6501 20.8006C27.0287 20.8006 26.485 20.5316 26.0967 20.1088C26.3685 20.2625 26.6792 20.3394 27.0287 20.3394C28.1549 20.3394 29.0481 19.4939 29.0481 18.4177C29.0481 17.9181 28.8928 17.4953 28.5821 17.1494Z" fill="#AC2014"/>
<path fill-rule="evenodd" clip-rule="evenodd" d="M27.1844 17.1877C27.6505 17.1877 28.0388 17.5336 28.0388 17.918C28.0388 18.3408 27.6505 18.6482 27.1844 18.6482C26.7184 18.6482 26.3301 18.3023 26.3301 17.918C26.3689 17.4952 26.7184 17.1877 27.1844 17.1877Z" fill="#DB3715"/>
<path fill-rule="evenodd" clip-rule="evenodd" d="M28.7375 17.7643C28.7375 17.7643 29.3589 18.3408 29.2424 18.9942C29.087 19.6476 29.6307 19.2632 29.6307 18.8789C29.6307 18.4946 29.5919 18.1102 29.3977 17.9181C29.2035 17.7259 28.5433 17.5337 28.7375 17.7643Z" fill="#DB3715"/>
<path fill-rule="evenodd" clip-rule="evenodd" d="M27.1066 17.5721C27.3008 17.5721 27.4173 17.6874 27.4173 17.8796C27.4173 18.0333 27.2619 18.1871 27.1066 18.1871C26.9124 18.1871 26.7959 18.0718 26.7959 17.8796C26.7959 17.6874 26.9512 17.5721 27.1066 17.5721Z" fill="#E26037"/>
<path fill-rule="evenodd" clip-rule="evenodd" d="M29.5917 12.0377C30.7956 12.0377 31.7665 12.9601 31.7665 14.1131C31.7665 15.2661 30.7956 16.1886 29.5917 16.1886C28.3879 16.1886 27.417 15.2661 27.417 14.1131C27.417 12.9601 28.3879 12.0377 29.5917 12.0377Z" fill="#DB3715"/>
<path fill-rule="evenodd" clip-rule="evenodd" d="M29.6694 12.1914C30.8344 12.1914 31.7664 13.0754 31.7664 14.19C31.7664 15.3045 30.8344 16.1885 29.6694 16.1885C28.5043 16.1885 27.5723 15.3045 27.5723 14.19C27.5723 13.0754 28.5043 12.1914 29.6694 12.1914Z" fill="#BE2218"/>
<path fill-rule="evenodd" clip-rule="evenodd" d="M30.5235 12.3837C31.1837 12.6911 31.6109 13.3445 31.6109 14.1132C31.6109 15.1893 30.7177 16.0349 29.5915 16.0349C28.9701 16.0349 28.4264 15.7658 28.0381 15.3431C28.3099 15.4968 28.6206 15.5737 28.9701 15.5737C30.0963 15.5737 30.9895 14.7281 30.9895 13.652C31.0284 13.1523 30.8342 12.7296 30.5235 12.3837Z" fill="#AC2014"/>
<path fill-rule="evenodd" clip-rule="evenodd" d="M29.1649 12.422C29.6309 12.422 30.0193 12.7679 30.0193 13.1522C30.0193 13.575 29.6309 13.8825 29.1649 13.8825C28.6989 13.8825 28.3105 13.5366 28.3105 13.1522C28.3105 12.7679 28.6989 12.422 29.1649 12.422Z" fill="#DB3715"/>
<path fill-rule="evenodd" clip-rule="evenodd" d="M29.0872 12.8064C29.2814 12.8064 29.3979 12.9217 29.3979 13.1139C29.3979 13.2676 29.2425 13.4213 29.0872 13.4213C28.893 13.4213 28.7765 13.306 28.7765 13.1139C28.7377 12.9217 28.893 12.8064 29.0872 12.8064Z" fill="#E26037"/>
<path fill-rule="evenodd" clip-rule="evenodd" d="M30.1357 14.459C31.3396 14.459 32.3104 15.3814 32.3104 16.5344C32.3104 17.6874 31.3396 18.6098 30.1357 18.6098C28.9318 18.6098 27.9609 17.6874 27.9609 16.5344C27.9609 15.3814 28.9318 14.459 30.1357 14.459Z" fill="#DB3715"/>
<path fill-rule="evenodd" clip-rule="evenodd" d="M30.2133 14.6127C31.3783 14.6127 32.3104 15.4966 32.3104 16.6112C32.3104 17.7258 31.3783 18.6098 30.2133 18.6098C29.0482 18.6098 28.1162 17.7258 28.1162 16.6112C28.1162 15.4966 29.0482 14.6127 30.2133 14.6127Z" fill="#BE2218"/>
<path fill-rule="evenodd" clip-rule="evenodd" d="M31.0675 14.8433C31.7277 15.1507 32.1548 15.8041 32.1548 16.5728C32.1548 17.6489 31.2616 18.4945 30.1354 18.4945C29.5141 18.4945 28.9704 18.2254 28.582 17.8027C28.8539 17.9564 29.1646 18.0333 29.5141 18.0333C30.6403 18.0333 31.5335 17.1877 31.5335 16.1116C31.5723 15.6119 31.3781 15.1507 31.0675 14.8433Z" fill="#AC2014"/>
<path fill-rule="evenodd" clip-rule="evenodd" d="M29.7089 14.8433C30.1749 14.8433 30.5632 15.1892 30.5632 15.5735C30.5632 15.9963 30.1749 16.3037 29.7089 16.3037C29.2428 16.3037 28.8545 15.9578 28.8545 15.5735C28.8545 15.1892 29.2428 14.8433 29.7089 14.8433Z" fill="#DB3715"/>
<path fill-rule="evenodd" clip-rule="evenodd" d="M31.2229 15.4583C31.2229 15.4583 31.8443 16.0348 31.7278 16.6882C31.5724 17.3415 32.1161 16.9572 32.1161 16.5729C32.1161 16.1885 32.0773 15.8042 31.8831 15.612C31.6889 15.4199 31.0676 15.2277 31.2229 15.4583Z" fill="#DB3715"/>
<path fill-rule="evenodd" clip-rule="evenodd" d="M29.631 15.2277C29.8252 15.2277 29.9417 15.343 29.9417 15.5351C29.9417 15.6889 29.7863 15.8426 29.631 15.8426C29.4368 15.8426 29.3203 15.7273 29.3203 15.5351C29.3203 15.343 29.4368 15.2277 29.631 15.2277Z" fill="#E26037"/>
<path fill-rule="evenodd" clip-rule="evenodd" d="M39.9605 14.6128C41.0091 14.6128 41.8634 15.4199 41.8634 16.4192C41.8634 17.4184 41.0091 18.2256 39.9605 18.2256C38.912 18.2256 38.0576 17.4184 38.0576 16.4192C38.0576 15.4199 38.912 14.6128 39.9605 14.6128Z" fill="#DB3715"/>
<path fill-rule="evenodd" clip-rule="evenodd" d="M40.0379 14.7281C41.0476 14.7281 41.902 15.5353 41.902 16.4961C41.902 17.4569 41.0864 18.264 40.0379 18.264C38.9894 18.264 38.1738 17.4569 38.1738 16.4961C38.1738 15.5353 38.9894 14.7281 40.0379 14.7281Z" fill="#BE2218"/>
<path fill-rule="evenodd" clip-rule="evenodd" d="M40.7763 14.9203C41.3588 15.1893 41.7472 15.7658 41.7472 16.4192C41.7472 17.3416 40.9317 18.1103 39.9608 18.1103C39.4171 18.1103 38.9122 17.8797 38.6016 17.4953C38.8346 17.6106 39.1064 17.6875 39.4171 17.6875C40.388 17.6875 41.2035 16.9188 41.2035 15.9964C41.2035 15.6121 41.0482 15.2278 40.7763 14.9203Z" fill="#AC2014"/>
<path fill-rule="evenodd" clip-rule="evenodd" d="M39.5718 14.9587C39.999 14.9587 40.3097 15.2662 40.3097 15.6121C40.3097 15.958 39.9602 16.2655 39.5718 16.2655C39.1447 16.2655 38.834 15.958 38.834 15.6121C38.834 15.2278 39.1447 14.9587 39.5718 14.9587Z" fill="#DB3715"/>
<path fill-rule="evenodd" clip-rule="evenodd" d="M40.9318 15.4967C40.9318 15.4967 41.4755 15.9964 41.359 16.5729C41.2425 17.1494 41.7085 16.8035 41.7085 16.4576C41.7085 16.1117 41.6697 15.8042 41.5144 15.612C41.3202 15.4199 40.7765 15.2661 40.9318 15.4967Z" fill="#DB3715"/>
<path fill-rule="evenodd" clip-rule="evenodd" d="M36.8154 13.3445C38.0193 13.3445 38.9901 14.2669 38.9901 15.4199C38.9901 16.5729 38.0193 17.4953 36.8154 17.4953C35.6115 17.4953 34.6406 16.5729 34.6406 15.4199C34.6406 14.2669 35.6115 13.3445 36.8154 13.3445Z" fill="#DB3715"/>
<path fill-rule="evenodd" clip-rule="evenodd" d="M36.893 13.4598C38.058 13.4598 38.9901 14.3438 38.9901 15.4584C38.9901 16.573 38.058 17.4569 36.893 17.4569C35.7279 17.4569 34.7959 16.573 34.7959 15.4584C34.7959 14.3822 35.7279 13.4598 36.893 13.4598Z" fill="#BE2218"/>
<path fill-rule="evenodd" clip-rule="evenodd" d="M37.7472 13.6904C38.4074 13.9979 38.8345 14.6513 38.8345 15.4199C38.8345 16.4961 37.9413 17.3416 36.8151 17.3416C36.1938 17.3416 35.6501 17.0726 35.2617 16.6498C35.5336 16.8036 35.8442 16.8804 36.1938 16.8804C37.32 16.8804 38.2132 16.0349 38.2132 14.9587C38.2132 14.4591 38.019 14.0363 37.7472 13.6904Z" fill="#AC2014"/>
<path fill-rule="evenodd" clip-rule="evenodd" d="M36.3495 13.7288C36.8155 13.7288 37.2039 14.0747 37.2039 14.459C37.2039 14.8818 36.8155 15.1892 36.3495 15.1892C35.8835 15.1892 35.4951 14.8433 35.4951 14.459C35.534 14.0362 35.8835 13.7288 36.3495 13.7288Z" fill="#DB3715"/>
<path fill-rule="evenodd" clip-rule="evenodd" d="M36.2716 14.0747C36.4658 14.0747 36.5823 14.19 36.5823 14.3822C36.5823 14.5359 36.427 14.6896 36.2716 14.6896C36.0774 14.6896 35.9609 14.5743 35.9609 14.3822C35.9609 14.2284 36.1163 14.0747 36.2716 14.0747Z" fill="#E26037"/>
<path fill-rule="evenodd" clip-rule="evenodd" d="M33.5527 15.4583C34.7566 15.4583 35.7274 16.3807 35.7274 17.5337C35.7274 18.6867 34.7566 19.6091 33.5527 19.6091C32.3488 19.6091 31.3779 18.6867 31.3779 17.5337C31.3779 16.3807 32.3488 15.4583 33.5527 15.4583Z" fill="#DB3715"/>
<path fill-rule="evenodd" clip-rule="evenodd" d="M33.6303 15.6119C34.7953 15.6119 35.7274 16.4959 35.7274 17.6105C35.7274 18.7251 34.7953 19.609 33.6303 19.609C32.4652 19.609 31.5332 18.7251 31.5332 17.6105C31.5332 16.4959 32.4652 15.6119 33.6303 15.6119Z" fill="#BE2218"/>
<path fill-rule="evenodd" clip-rule="evenodd" d="M34.4845 15.8042C35.1447 16.1117 35.5718 16.765 35.5718 17.5337C35.5718 18.6099 34.6786 19.4554 33.5524 19.4554C32.9311 19.4554 32.3874 19.1864 31.999 18.7636C32.2709 18.9173 32.5815 18.9942 32.9311 18.9942C34.0573 18.9942 34.9505 18.1487 34.9505 17.0725C34.9505 16.5729 34.7951 16.1501 34.4845 15.8042Z" fill="#AC2014"/>
<path fill-rule="evenodd" clip-rule="evenodd" d="M33.1259 15.8425C33.5919 15.8425 33.9802 16.1884 33.9802 16.5728C33.9802 16.9571 33.5919 17.303 33.1259 17.303C32.6598 17.303 32.2715 16.9571 32.2715 16.5728C32.2715 16.1884 32.6598 15.8425 33.1259 15.8425Z" fill="#DB3715"/>
<path fill-rule="evenodd" clip-rule="evenodd" d="M34.6398 16.4575C34.6398 16.4575 35.2612 17.0341 35.1447 17.6874C34.9894 18.3408 35.5331 17.9565 35.5331 17.5721C35.5331 17.1878 35.4942 16.8034 35.3 16.6113C35.1059 16.3807 34.4457 16.1885 34.6398 16.4575Z" fill="#DB3715"/>
<path fill-rule="evenodd" clip-rule="evenodd" d="M33.0089 16.2269C33.2031 16.2269 33.3196 16.3422 33.3196 16.5344C33.3196 16.6881 33.1643 16.8419 33.0089 16.8419C32.8147 16.8419 32.6982 16.7266 32.6982 16.5344C32.6982 16.3422 32.8536 16.2269 33.0089 16.2269Z" fill="#E26037"/>
<path fill-rule="evenodd" clip-rule="evenodd" d="M37.2031 16.3038C38.407 16.3038 39.3778 17.2262 39.3778 18.3793C39.3778 19.5323 38.407 20.4547 37.2031 20.4547C35.9992 20.4547 35.0283 19.5323 35.0283 18.3793C35.0283 17.2262 35.9992 16.3038 37.2031 16.3038Z" fill="#C8231A"/>
<path fill-rule="evenodd" clip-rule="evenodd" d="M37.2807 16.4575C38.4457 16.4575 39.3778 17.3415 39.3778 18.4561C39.3778 19.5706 38.4457 20.4546 37.2807 20.4546C36.1156 20.4546 35.1836 19.5706 35.1836 18.4561C35.1836 17.3415 36.1156 16.4575 37.2807 16.4575Z" fill="#AD2419"/>
<path fill-rule="evenodd" clip-rule="evenodd" d="M38.1348 16.6498C38.795 16.9572 39.2222 17.6106 39.2222 18.3793C39.2222 19.4554 38.329 20.301 37.2028 20.301C36.5815 20.301 36.0378 20.0319 35.6494 19.6092C35.9213 19.7629 36.2319 19.8398 36.5815 19.8398C37.7077 19.8398 38.6009 18.9942 38.6009 17.9181C38.6009 17.4185 38.4455 16.9957 38.1348 16.6498Z" fill="#AC2014"/>
<path fill-rule="evenodd" clip-rule="evenodd" d="M36.7762 16.6881C37.2423 16.6881 37.6306 17.034 37.6306 17.4183C37.6306 17.8411 37.2423 18.1486 36.7762 18.1486C36.3102 18.1486 35.9219 17.8027 35.9219 17.4183C35.9219 17.034 36.3102 16.6881 36.7762 16.6881Z" fill="#DB3715"/>
<path fill-rule="evenodd" clip-rule="evenodd" d="M34.2128 18.6868C35.4167 18.6868 36.3876 19.6092 36.3876 20.7622C36.3876 20.9159 36.3876 21.0697 36.3488 21.185C36.0769 21.2234 35.8051 21.2618 35.5332 21.3003C34.5235 21.4156 33.3973 21.5309 32.2323 21.6462C32.1158 21.3771 32.0381 21.1081 32.0381 20.8006C32.0381 19.6092 33.009 18.6868 34.2128 18.6868Z" fill="#DB3715"/>
<path fill-rule="evenodd" clip-rule="evenodd" d="M34.2904 18.8405C35.4555 18.8405 36.3875 19.7244 36.3875 20.839C36.3875 20.9543 36.3875 21.0696 36.3487 21.1849C36.0769 21.2233 35.805 21.2618 35.5332 21.3002C34.5623 21.4155 33.4749 21.5308 32.3487 21.6077C32.2322 21.3771 32.1934 21.108 32.1934 20.839C32.1934 19.7244 33.1254 18.8405 34.2904 18.8405Z" fill="#BE2218"/>
<path fill-rule="evenodd" clip-rule="evenodd" d="M35.1445 19.071C35.8047 19.3785 36.2319 20.0319 36.2319 20.8006C36.2319 20.9543 36.2319 21.108 36.1931 21.2233C35.9601 21.2618 35.7659 21.3002 35.5329 21.3002L35.3387 21.3386C35.5329 21.0312 35.6494 20.6853 35.6494 20.3394C35.6106 19.8397 35.4552 19.4169 35.1445 19.071Z" fill="#AC2014"/>
<path fill-rule="evenodd" clip-rule="evenodd" d="M33.747 19.1095C34.213 19.1095 34.6013 19.4554 34.6013 19.8397C34.6013 20.2625 34.213 20.57 33.747 20.57C33.2809 20.57 32.8926 20.2241 32.8926 19.8397C32.9314 19.417 33.2809 19.1095 33.747 19.1095Z" fill="#DB3715"/>
<path fill-rule="evenodd" clip-rule="evenodd" d="M35.3 19.6861C35.3 19.6861 35.9214 20.2626 35.8048 20.916C35.6495 21.5693 36.1932 21.185 36.1932 20.8006C36.1932 20.4163 36.1544 20.032 35.9602 19.8398C35.766 19.6476 35.1058 19.4555 35.3 19.6861Z" fill="#DB3715"/>
<path fill-rule="evenodd" clip-rule="evenodd" d="M33.6691 19.4554C33.8633 19.4554 33.9798 19.5707 33.9798 19.7629C33.9798 19.9166 33.8244 20.0704 33.6691 20.0704C33.4749 20.0704 33.3584 19.9551 33.3584 19.7629C33.3584 19.6092 33.5137 19.4554 33.6691 19.4554Z" fill="#E26037"/>
<path fill-rule="evenodd" clip-rule="evenodd" d="M30.6017 18.0718C31.8056 18.0718 32.7765 18.9942 32.7765 20.1472C32.7765 20.7621 32.5047 21.3002 32.0775 21.6845C31.2231 21.7614 30.2911 21.7998 29.3979 21.8383C28.8153 21.4539 28.4658 20.839 28.4658 20.1472C28.4658 18.9942 29.4367 18.0718 30.6017 18.0718Z" fill="#DB3715"/>
<path fill-rule="evenodd" clip-rule="evenodd" d="M30.6791 18.1871C31.8442 18.1871 32.7762 19.0711 32.7762 20.1857C32.7762 20.7622 32.5044 21.2618 32.116 21.6462C31.2616 21.723 30.3684 21.7615 29.4752 21.7999C28.9315 21.454 28.582 20.8391 28.582 20.1857C28.582 19.1095 29.5529 18.1871 30.6791 18.1871Z" fill="#BE2218"/>
<path fill-rule="evenodd" clip-rule="evenodd" d="M31.5343 18.4177C32.1945 18.7252 32.6216 19.3786 32.6216 20.1472C32.6216 20.7622 32.311 21.3387 31.8061 21.6846C31.0682 21.723 30.3304 21.7999 29.5925 21.8383C29.3983 21.723 29.2042 21.5693 29.0488 21.4155C29.3207 21.5693 29.6313 21.6462 29.9809 21.6462C31.1071 21.6462 32.0003 20.8006 32.0003 19.7245C32.0391 19.1864 31.8449 18.7636 31.5343 18.4177Z" fill="#AC2014"/>
<path fill-rule="evenodd" clip-rule="evenodd" d="M30.1747 18.4561C30.6407 18.4561 31.0291 18.802 31.0291 19.1863C31.0291 19.6091 30.6407 19.9165 30.1747 19.9165C29.7087 19.9165 29.3203 19.5706 29.3203 19.1863C29.3203 18.7635 29.7087 18.4561 30.1747 18.4561Z" fill="#DB3715"/>
<path fill-rule="evenodd" clip-rule="evenodd" d="M31.6887 19.0326C31.6887 19.0326 32.3101 19.6091 32.1936 20.2625C32.0382 20.9159 32.5819 20.5315 32.5819 20.1472C32.5819 19.7629 32.5431 19.3785 32.3489 19.1864C32.1548 18.9942 31.5334 18.802 31.6887 19.0326Z" fill="#DB3715"/>
<path fill-rule="evenodd" clip-rule="evenodd" d="M30.0968 18.802C30.291 18.802 30.4075 18.9173 30.4075 19.1095C30.4075 19.2632 30.2522 19.4169 30.0968 19.4169C29.9026 19.4169 29.7861 19.3016 29.7861 19.1095C29.7861 18.9557 29.9026 18.802 30.0968 18.802Z" fill="#E26037"/>
<path fill-rule="evenodd" clip-rule="evenodd" d="M40.0771 16.6498C41.281 16.6498 42.2519 17.5722 42.2519 18.7252C42.2519 18.8789 42.2519 18.9942 42.213 19.148C41.98 19.7245 41.1256 20.2241 39.3392 20.6469C38.5237 20.3778 37.9023 19.6092 37.9023 18.6868C37.9023 17.5722 38.8732 16.6498 40.0771 16.6498Z" fill="#DB3715"/>
<path fill-rule="evenodd" clip-rule="evenodd" d="M40.1547 16.7651C41.3198 16.7651 42.2518 17.6491 42.2518 18.7637C42.2518 18.8406 42.2518 18.9559 42.213 19.0327C42.0188 19.6092 41.2032 20.1473 39.378 20.6085C38.6013 20.301 38.0576 19.6092 38.0576 18.7637C38.0576 17.6875 38.9897 16.7651 40.1547 16.7651Z" fill="#BE2218"/>
<path fill-rule="evenodd" clip-rule="evenodd" d="M41.0089 16.9957C41.6691 17.3032 42.0963 17.9566 42.0963 18.7252C42.0963 18.9943 42.0186 19.3017 41.9021 19.5323C41.5137 19.9167 40.7759 20.2626 39.572 20.6085C39.1448 20.4932 38.7953 20.301 38.5234 19.9936C38.7953 20.1473 39.106 20.2242 39.4555 20.2242C40.5817 20.2242 41.4749 19.3786 41.4749 18.3025C41.4749 17.7644 41.3196 17.3416 41.0089 16.9957Z" fill="#AC2014"/>
<path fill-rule="evenodd" clip-rule="evenodd" d="M39.6112 17.0341C40.0772 17.0341 40.4656 17.38 40.4656 17.7643C40.4656 18.1871 40.0772 18.4945 39.6112 18.4945C39.1452 18.4945 38.7568 18.1486 38.7568 17.7643C38.7957 17.3415 39.1452 17.0341 39.6112 17.0341Z" fill="#DB3715"/>
<path fill-rule="evenodd" clip-rule="evenodd" d="M41.1643 17.6106C41.1643 17.6106 41.7856 18.1871 41.6691 18.8405C41.5138 19.4939 42.0575 19.1095 42.0575 18.7252C42.0575 18.3409 42.0186 17.9565 41.8245 17.7644C41.6303 17.5722 40.9701 17.38 41.1643 17.6106Z" fill="#DB3715"/>
<path fill-rule="evenodd" clip-rule="evenodd" d="M39.5333 17.38C39.7275 17.38 39.844 17.4953 39.844 17.6875C39.844 17.8412 39.6887 17.9949 39.5333 17.9949C39.3392 17.9949 39.2227 17.8796 39.2227 17.6875C39.2227 17.5337 39.378 17.38 39.5333 17.38Z" fill="#E26037"/>
<path fill-rule="evenodd" clip-rule="evenodd" d="M38.0185 19.1864C38.9117 19.1864 39.6884 19.7245 39.9991 20.4547C38.9894 20.7622 37.6302 21.0312 35.8438 21.2618C35.8438 20.1088 36.8146 19.1864 38.0185 19.1864Z" fill="#DB3715"/>
<path fill-rule="evenodd" clip-rule="evenodd" d="M38.0963 19.3401C38.9119 19.3401 39.6497 19.8013 39.9993 20.4547C39.0284 20.7237 37.7468 20.9927 36.0381 21.2233C36.0381 20.1856 36.9701 19.3401 38.0963 19.3401Z" fill="#BE2218"/>
<path fill-rule="evenodd" clip-rule="evenodd" d="M38.9502 19.5323C39.3774 19.7245 39.6881 20.0704 39.8822 20.4548C39.7269 20.4932 39.5715 20.5316 39.4162 20.5701C39.3774 20.2242 39.222 19.8398 38.9502 19.5323Z" fill="#AC2014"/>
<path fill-rule="evenodd" clip-rule="evenodd" d="M37.5917 19.5707C38.0577 19.5707 38.446 19.9166 38.446 20.3009C38.446 20.5315 38.3295 20.7621 38.0965 20.8774C37.8635 20.9159 37.6305 20.9543 37.3975 20.9927C37.048 20.9159 36.7761 20.6084 36.7761 20.2625C36.7373 19.9166 37.1256 19.5707 37.5917 19.5707Z" fill="#DB3715"/>
<path fill-rule="evenodd" clip-rule="evenodd" d="M39.1057 20.1857C39.1057 20.1857 39.2998 20.3779 39.4552 20.6085C39.6105 20.57 39.7659 20.5316 39.8824 20.4932C39.8435 20.4163 39.8047 20.3779 39.7659 20.3394C39.5717 20.1473 38.9115 19.9167 39.1057 20.1857Z" fill="#DB3715"/>
<path fill-rule="evenodd" clip-rule="evenodd" d="M37.5138 19.9551C37.708 19.9551 37.8245 20.0704 37.8245 20.2625C37.8245 20.4547 37.6691 20.57 37.5138 20.57C37.3196 20.57 37.2031 20.4547 37.2031 20.2625C37.2031 20.0704 37.3196 19.9551 37.5138 19.9551Z" fill="#E26037"/>
<path fill-rule="evenodd" clip-rule="evenodd" d="M27.4945 18.7252C28.6984 18.7252 29.6692 19.6476 29.6692 20.8006C29.6692 21.185 29.5527 21.5309 29.3974 21.8383C28.1935 21.9152 26.9508 21.9536 25.7081 21.9536C25.4751 21.6077 25.3585 21.2234 25.3585 20.8006C25.3197 19.6476 26.2906 18.7252 27.4945 18.7252Z" fill="#DB3715"/>
<path fill-rule="evenodd" clip-rule="evenodd" d="M27.5336 18.8789C28.6987 18.8789 29.6307 19.7629 29.6307 20.8775C29.6307 21.2234 29.553 21.5308 29.3589 21.8383C28.1938 21.9152 26.9899 21.9536 25.7472 21.9536C25.553 21.6461 25.4365 21.2618 25.4365 20.8775C25.4754 19.7629 26.4074 18.8789 27.5336 18.8789Z" fill="#BE2218"/>
<path fill-rule="evenodd" clip-rule="evenodd" d="M28.4267 19.0712C29.0869 19.3786 29.514 20.032 29.514 20.8007C29.514 21.185 29.3975 21.5309 29.2034 21.8384C28.815 21.8384 28.4655 21.8768 28.0771 21.8768C28.582 21.5309 28.8927 20.9544 28.8927 20.3395C28.8927 19.8398 28.6985 19.4171 28.4267 19.0712Z" fill="#AC2014"/>
<path fill-rule="evenodd" clip-rule="evenodd" d="M27.0282 19.1095C27.4942 19.1095 27.8826 19.4554 27.8826 19.8397C27.8826 20.2625 27.4942 20.57 27.0282 20.57C26.5622 20.57 26.1738 20.2241 26.1738 19.8397C26.1738 19.4554 26.5622 19.1095 27.0282 19.1095Z" fill="#DB3715"/>
<path fill-rule="evenodd" clip-rule="evenodd" d="M28.543 19.7245C28.543 19.7245 29.1644 20.301 29.0479 20.9544C28.8925 21.6078 29.4362 21.2234 29.4362 20.8391C29.4362 20.4548 29.3974 20.0704 29.2032 19.8782C29.0479 19.6861 28.3877 19.4555 28.543 19.7245Z" fill="#DB3715"/>
<path fill-rule="evenodd" clip-rule="evenodd" d="M26.9503 19.4939C27.1445 19.4939 27.261 19.6092 27.261 19.8014C27.261 19.9551 27.1057 20.1088 26.9503 20.1088C26.7562 20.1088 26.6396 19.9935 26.6396 19.8014C26.6396 19.6092 26.795 19.4939 26.9503 19.4939Z" fill="#E26037"/>
<path fill-rule="evenodd" clip-rule="evenodd" d="M21.708 18.4945C22.9118 18.4945 23.8827 19.4169 23.8827 20.5699C23.8827 21.108 23.6885 21.5692 23.339 21.9535C22.2128 21.9535 21.0866 21.9151 19.9992 21.8382C19.7274 21.4923 19.5332 21.0311 19.5332 20.5699C19.5332 19.4169 20.5041 18.4945 21.708 18.4945Z" fill="#DB3715"/>
<path fill-rule="evenodd" clip-rule="evenodd" d="M21.7856 18.6482C22.9506 18.6482 23.8827 19.5322 23.8827 20.6467C23.8827 21.1464 23.6885 21.6076 23.3778 21.9535C22.2904 21.9535 21.203 21.9151 20.1157 21.8382C19.8438 21.4923 19.6885 21.0695 19.6885 20.6467C19.6885 19.5322 20.6205 18.6482 21.7856 18.6482Z" fill="#BE2218"/>
<path fill-rule="evenodd" clip-rule="evenodd" d="M22.6398 18.8405C23.2999 19.1479 23.7271 19.8013 23.7271 20.57C23.7271 21.108 23.4941 21.5692 23.1446 21.9151C22.7174 21.9151 22.2514 21.9151 21.8242 21.8767C22.6009 21.6077 23.1446 20.9159 23.1446 20.0703C23.1446 19.6091 22.9504 19.1864 22.6398 18.8405Z" fill="#AC2014"/>
<path fill-rule="evenodd" clip-rule="evenodd" d="M21.2811 18.8788C21.7471 18.8788 22.1355 19.2247 22.1355 19.609C22.1355 20.0318 21.7471 20.3393 21.2811 20.3393C20.8151 20.3393 20.4268 19.9934 20.4268 19.609C20.4268 19.2247 20.8151 18.8788 21.2811 18.8788Z" fill="#DB3715"/>
<path fill-rule="evenodd" clip-rule="evenodd" d="M22.7951 19.4938C22.7951 19.4938 23.4165 20.0703 23.3 20.7237C23.1446 21.3771 23.6883 20.9927 23.6883 20.6084C23.6883 20.224 23.6495 19.8397 23.4553 19.6475C23.2611 19.4169 22.6009 19.2248 22.7951 19.4938Z" fill="#DB3715"/>
<path fill-rule="evenodd" clip-rule="evenodd" d="M21.2034 19.2632C21.3976 19.2632 21.5141 19.3785 21.5141 19.5707C21.5141 19.7244 21.3587 19.8781 21.2034 19.8781C21.0092 19.8781 20.8927 19.7628 20.8927 19.5707C20.8539 19.3785 21.0092 19.2632 21.2034 19.2632Z" fill="#E26037"/>
<path fill-rule="evenodd" clip-rule="evenodd" d="M17.3974 11C18.6013 11 19.5722 11.9224 19.5722 13.0754C19.5722 14.2284 18.6013 15.1508 17.3974 15.1508C16.1935 15.1508 15.2227 14.2284 15.2227 13.0754C15.2227 11.9224 16.1935 11 17.3974 11Z" fill="#DB3715"/>
<path fill-rule="evenodd" clip-rule="evenodd" d="M17.475 11.1537C18.6401 11.1537 19.5721 12.0377 19.5721 13.1522C19.5721 14.2668 18.6401 15.1508 17.475 15.1508C16.31 15.1508 15.3779 14.2668 15.3779 13.1522C15.3779 12.0377 16.31 11.1537 17.475 11.1537Z" fill="#BE2218"/>
<path fill-rule="evenodd" clip-rule="evenodd" d="M18.3292 11.3459C18.9894 11.6534 19.4166 12.3068 19.4166 13.0755C19.4166 14.1516 18.5234 14.9971 17.3971 14.9971C16.7758 14.9971 16.2321 14.7281 15.8438 14.3053C16.1156 14.4591 16.4263 14.5359 16.7758 14.5359C17.902 14.5359 18.7952 13.6904 18.7952 12.6143C18.834 12.1146 18.6399 11.6919 18.3292 11.3459Z" fill="#AC2014"/>
<path fill-rule="evenodd" clip-rule="evenodd" d="M16.9706 11.3843C17.4366 11.3843 17.8249 11.7302 17.8249 12.1145C17.8249 12.5373 17.4366 12.8448 16.9706 12.8448C16.5046 12.8448 16.1162 12.4989 16.1162 12.1145C16.1162 11.7302 16.5046 11.3843 16.9706 11.3843Z" fill="#DB3715"/>
<path fill-rule="evenodd" clip-rule="evenodd" d="M18.4846 11.9993C18.4846 11.9993 19.106 12.5758 18.9895 13.2292C18.8341 13.8825 19.3778 13.4982 19.3778 13.1139C19.3778 12.7295 19.339 12.3452 19.1448 12.153C18.9507 11.9224 18.3293 11.7303 18.4846 11.9993Z" fill="#DB3715"/>
<path fill-rule="evenodd" clip-rule="evenodd" d="M16.8927 11.7687C17.0869 11.7687 17.2034 11.884 17.2034 12.0761C17.2034 12.2683 17.048 12.3836 16.8927 12.3836C16.6985 12.3836 16.582 12.2683 16.582 12.0761C16.582 11.884 16.6985 11.7687 16.8927 11.7687Z" fill="#E26037"/>
<path fill-rule="evenodd" clip-rule="evenodd" d="M11.1064 13.306C12.3103 13.306 13.2812 14.2284 13.2812 15.3814C13.2812 16.5345 12.3103 17.4569 11.1064 17.4569C9.90251 17.4569 8.93164 16.5345 8.93164 15.3814C8.93164 14.2669 9.90251 13.306 11.1064 13.306Z" fill="#DB3715"/>
<path fill-rule="evenodd" clip-rule="evenodd" d="M11.184 13.4597C12.349 13.4597 13.2811 14.3437 13.2811 15.4583C13.2811 16.5728 12.349 17.4568 11.184 17.4568C10.019 17.4568 9.08691 16.5728 9.08691 15.4583C9.08691 14.3437 10.019 13.4597 11.184 13.4597Z" fill="#BE2218"/>
<path fill-rule="evenodd" clip-rule="evenodd" d="M12.0382 13.6903C12.6984 13.9978 13.1255 14.6511 13.1255 15.4198C13.1255 16.496 12.2323 17.3415 11.1061 17.3415C10.4848 17.3415 9.94108 17.0725 9.55273 16.6497C9.82458 16.8034 10.1353 16.8803 10.4848 16.8803C11.611 16.8803 12.5042 16.0348 12.5042 14.9586C12.5042 14.459 12.3489 14.0362 12.0382 13.6903Z" fill="#AC2014"/>
<path fill-rule="evenodd" clip-rule="evenodd" d="M10.6796 13.7288C11.1456 13.7288 11.5339 14.0747 11.5339 14.459C11.5339 14.8818 11.1456 15.1892 10.6796 15.1892C10.2135 15.1892 9.8252 14.8433 9.8252 14.459C9.8252 14.0362 10.2135 13.7288 10.6796 13.7288Z" fill="#DB3715"/>
<path fill-rule="evenodd" clip-rule="evenodd" d="M12.1936 14.3053C12.1936 14.3053 12.8149 14.8818 12.6984 15.5352C12.5431 16.1886 13.0868 15.8042 13.0868 15.4199C13.0868 15.0356 13.0479 14.6512 12.8537 14.4591C12.6596 14.2669 11.9994 14.0747 12.1936 14.3053Z" fill="#DB3715"/>
<path fill-rule="evenodd" clip-rule="evenodd" d="M10.6017 14.0747C10.7959 14.0747 10.9124 14.19 10.9124 14.3822C10.9124 14.5743 10.757 14.6896 10.6017 14.6896C10.4075 14.6896 10.291 14.5743 10.291 14.3822C10.291 14.19 10.4075 14.0747 10.6017 14.0747Z" fill="#E26037"/>
<path fill-rule="evenodd" clip-rule="evenodd" d="M14.8349 11.8456C16.0388 11.8456 17.0097 12.768 17.0097 13.921C17.0097 15.074 16.0388 15.9964 14.8349 15.9964C13.631 15.9964 12.6602 15.074 12.6602 13.921C12.699 12.768 13.6699 11.8456 14.8349 11.8456Z" fill="#DB3715"/>
<path fill-rule="evenodd" clip-rule="evenodd" d="M14.9125 11.9993C16.0776 11.9993 17.0096 12.8832 17.0096 13.9978C17.0096 15.1124 16.0776 15.9964 14.9125 15.9964C13.7475 15.9964 12.8154 15.1124 12.8154 13.9978C12.8154 12.8832 13.7863 11.9993 14.9125 11.9993Z" fill="#BE2218"/>
<path fill-rule="evenodd" clip-rule="evenodd" d="M15.8058 12.1915C16.4659 12.499 16.8931 13.1524 16.8931 13.921C16.8931 14.9972 15.9999 15.8427 14.8737 15.8427C14.2524 15.8427 13.7087 15.5737 13.3203 15.1509C13.5922 15.3047 13.9028 15.3815 14.2524 15.3815C15.3786 15.3815 16.2718 14.536 16.2718 13.4598C16.2718 12.9602 16.0776 12.5374 15.8058 12.1915Z" fill="#AC2014"/>
<path fill-rule="evenodd" clip-rule="evenodd" d="M14.4081 12.2299C14.8741 12.2299 15.2624 12.5758 15.2624 12.9601C15.2624 13.3829 14.8741 13.6903 14.4081 13.6903C13.9421 13.6903 13.5537 13.3444 13.5537 12.9601C13.5537 12.5758 13.9421 12.2299 14.4081 12.2299Z" fill="#DB3715"/>
<path fill-rule="evenodd" clip-rule="evenodd" d="M15.9221 12.8449C15.9221 12.8449 16.5435 13.4214 16.427 14.0748C16.2716 14.7281 16.8153 14.3438 16.8153 13.9595C16.8153 13.5751 16.7765 13.1908 16.5823 12.9986C16.3882 12.768 15.7668 12.5758 15.9221 12.8449Z" fill="#DB3715"/>
<path fill-rule="evenodd" clip-rule="evenodd" d="M14.3302 12.6143C14.5244 12.6143 14.6409 12.7296 14.6409 12.9217C14.6409 13.1139 14.4855 13.2292 14.3302 13.2292C14.136 13.2292 14.0195 13.1139 14.0195 12.9217C14.0195 12.7296 14.136 12.6143 14.3302 12.6143Z" fill="#E26037"/>
<path fill-rule="evenodd" clip-rule="evenodd" d="M13.6699 15.1509C14.8738 15.1509 15.8446 16.0733 15.8446 17.2263C15.8446 18.3793 14.8738 19.3017 13.6699 19.3017C12.466 19.3017 11.4951 18.3793 11.4951 17.2263C11.4951 16.0733 12.466 15.1509 13.6699 15.1509Z" fill="#C8231A"/>
<path fill-rule="evenodd" clip-rule="evenodd" d="M13.7475 15.3046C14.9125 15.3046 15.8446 16.1885 15.8446 17.3031C15.8446 18.4177 14.9125 19.3017 13.7475 19.3017C12.5824 19.3017 11.6504 18.4177 11.6504 17.3031C11.6504 16.1885 12.5824 15.3046 13.7475 15.3046Z" fill="#AD2419"/>
<path fill-rule="evenodd" clip-rule="evenodd" d="M14.6016 15.4968C15.2618 15.8043 15.689 16.4577 15.689 17.2263C15.689 18.3025 14.7958 19.148 13.6696 19.148C13.0482 19.148 12.5046 18.879 12.1162 18.4562C12.3881 18.61 12.6987 18.6868 13.0482 18.6868C14.1745 18.6868 15.0677 17.8413 15.0677 16.7651C15.0677 16.3039 14.8735 15.8427 14.6016 15.4968Z" fill="#AC2014"/>
<path fill-rule="evenodd" clip-rule="evenodd" d="M13.204 15.5352C13.67 15.5352 14.0583 15.8811 14.0583 16.2654C14.0583 16.6882 13.67 16.9956 13.204 16.9956C12.738 16.9956 12.3496 16.6497 12.3496 16.2654C12.3884 15.8811 12.738 15.5352 13.204 15.5352Z" fill="#BE2218"/>
<path fill-rule="evenodd" clip-rule="evenodd" d="M14.7188 16.1502C14.7188 16.1502 15.3402 16.7267 15.2237 17.38C15.0683 18.0334 15.612 17.6491 15.612 17.2647C15.612 16.8804 15.5732 16.4961 15.379 16.3039C15.2237 16.1117 14.5635 15.8811 14.7188 16.1502Z" fill="#BE2218"/>
<path fill-rule="evenodd" clip-rule="evenodd" d="M10.7568 15.7657C11.9607 15.7657 12.9315 16.6882 12.9315 17.8412C12.9315 18.9942 11.9607 19.9166 10.7568 19.9166C10.2519 19.9166 9.78592 19.7628 9.39757 19.4554C9.24223 19.3401 9.12572 19.2248 9.04805 19.1095C8.77621 18.7636 8.58203 18.3024 8.58203 17.8412C8.58203 16.6882 9.55291 15.7657 10.7568 15.7657Z" fill="#DB3715"/>
<path fill-rule="evenodd" clip-rule="evenodd" d="M10.8344 15.9194C11.9994 15.9194 12.9315 16.8034 12.9315 17.918C12.9315 19.0326 11.9994 19.9165 10.8344 19.9165C9.66934 19.9165 8.7373 19.0326 8.7373 17.918C8.7373 16.8034 9.66934 15.9194 10.8344 15.9194Z" fill="#BE2218"/>
<path fill-rule="evenodd" clip-rule="evenodd" d="M11.6886 16.15C12.3488 16.4575 12.7759 17.1109 12.7759 17.8795C12.7759 18.9557 11.8827 19.8012 10.7565 19.8012C10.1352 19.8012 9.59147 19.5322 9.20312 19.1094C9.47497 19.2632 9.78565 19.34 10.1352 19.34C11.2614 19.34 12.1546 18.4945 12.1546 17.4183C12.1934 16.9187 11.9992 16.4959 11.6886 16.15Z" fill="#AC2014"/>
<path fill-rule="evenodd" clip-rule="evenodd" d="M10.33 16.1885C10.796 16.1885 11.1843 16.5344 11.1843 16.9187C11.1843 17.3415 10.796 17.649 10.33 17.649C9.86394 17.649 9.47559 17.3031 9.47559 16.9187C9.47559 16.4959 9.86394 16.1885 10.33 16.1885Z" fill="#DB3715"/>
<path fill-rule="evenodd" clip-rule="evenodd" d="M11.8439 16.7651C11.8439 16.7651 12.4653 17.3416 12.3488 17.9949C12.1935 18.6483 12.7371 18.264 12.7371 17.8796C12.7371 17.4953 12.6983 17.111 12.5041 16.9188C12.31 16.7266 11.6498 16.5345 11.8439 16.7651Z" fill="#DB3715"/>
<path fill-rule="evenodd" clip-rule="evenodd" d="M10.2521 16.5344C10.4463 16.5344 10.5628 16.6497 10.5628 16.8419C10.5628 17.0341 10.4074 17.1494 10.2521 17.1494C10.0579 17.1494 9.94141 17.0341 9.94141 16.8419C9.94141 16.6497 10.0579 16.5344 10.2521 16.5344Z" fill="#E26037"/>
<path fill-rule="evenodd" clip-rule="evenodd" d="M19.5722 11.7687C20.7761 11.7687 21.747 12.6911 21.747 13.8441C21.747 14.9971 20.7761 15.9195 19.5722 15.9195C18.3683 15.9195 17.3975 14.9971 17.3975 13.8441C17.3975 12.6911 18.3683 11.7687 19.5722 11.7687Z" fill="#C8231A"/>
<path fill-rule="evenodd" clip-rule="evenodd" d="M19.6498 11.9224C20.8149 11.9224 21.7469 12.8063 21.7469 13.9209C21.7469 15.0355 20.8149 15.9195 19.6498 15.9195C18.4848 15.9195 17.5527 15.0355 17.5527 13.9209C17.5527 12.8063 18.4848 11.9224 19.6498 11.9224Z" fill="#AD2419"/>
<path fill-rule="evenodd" clip-rule="evenodd" d="M20.504 12.1146C21.1642 12.4221 21.5914 13.0755 21.5914 13.8441C21.5914 14.9203 20.6982 15.7658 19.572 15.7658C18.9506 15.7658 18.4069 15.4968 18.0186 15.074C18.2904 15.2277 18.6011 15.3046 18.9506 15.3046C20.0768 15.3046 20.97 14.4591 20.97 13.3829C20.97 12.8833 20.7758 12.4605 20.504 12.1146Z" fill="#AC2014"/>
<path fill-rule="evenodd" clip-rule="evenodd" d="M19.1063 12.153C19.5723 12.153 19.9607 12.4989 19.9607 12.8832C19.9607 13.306 19.5723 13.6134 19.1063 13.6134C18.6403 13.6134 18.252 13.2675 18.252 12.8832C18.2908 12.4989 18.6403 12.153 19.1063 12.153Z" fill="#BE2218"/>
<path fill-rule="evenodd" clip-rule="evenodd" d="M20.6594 12.768C20.6594 12.768 21.2807 13.3445 21.1642 13.9978C21.0089 14.6512 21.5526 14.2669 21.5526 13.8825C21.5526 13.4982 21.5137 13.1139 21.3196 12.9217C21.1254 12.7295 20.4652 12.4989 20.6594 12.768Z" fill="#BE2218"/>
<path fill-rule="evenodd" clip-rule="evenodd" d="M17.2031 14.6512C18.407 14.6512 19.3778 15.5737 19.3778 16.7267C19.3778 17.8797 18.407 18.8021 17.2031 18.8021C15.9992 18.8021 15.0283 17.8797 15.0283 16.7267C15.0283 15.6121 15.9992 14.6512 17.2031 14.6512Z" fill="#DB3715"/>
<path fill-rule="evenodd" clip-rule="evenodd" d="M17.2807 14.8049C18.4457 14.8049 19.3778 15.6889 19.3778 16.8035C19.3778 17.9181 18.4457 18.802 17.2807 18.802C16.1156 18.802 15.1836 17.9181 15.1836 16.8035C15.1836 15.6889 16.1156 14.8049 17.2807 14.8049Z" fill="#BE2218"/>
<path fill-rule="evenodd" clip-rule="evenodd" d="M18.1349 15.0355C18.795 15.343 19.2222 15.9964 19.2222 16.765C19.2222 17.8412 18.329 18.6867 17.2028 18.6867C16.5815 18.6867 16.0378 18.4177 15.6494 17.9949C15.9213 18.1486 16.2319 18.2255 16.5815 18.2255C17.7077 18.2255 18.6009 17.38 18.6009 16.3038C18.6009 15.8042 18.4455 15.3814 18.1349 15.0355Z" fill="#AC2014"/>
<path fill-rule="evenodd" clip-rule="evenodd" d="M16.7762 15.074C17.2423 15.074 17.6306 15.4199 17.6306 15.8042C17.6306 16.227 17.2423 16.5345 16.7762 16.5345C16.3102 16.5345 15.9219 16.1886 15.9219 15.8042C15.9219 15.3814 16.3102 15.074 16.7762 15.074Z" fill="#DB3715"/>
<path fill-rule="evenodd" clip-rule="evenodd" d="M18.2902 15.6506C18.2902 15.6506 18.9116 16.2271 18.7951 16.8804C18.6397 17.5338 19.1834 17.1495 19.1834 16.7651C19.1834 16.3808 19.1446 15.9965 18.9504 15.8043C18.7563 15.6121 18.0961 15.4199 18.2902 15.6506Z" fill="#DB3715"/>
<path fill-rule="evenodd" clip-rule="evenodd" d="M16.6593 15.4199C16.8535 15.4199 16.97 15.5352 16.97 15.7274C16.97 15.9196 16.8147 16.0349 16.6593 16.0349C16.4651 16.0349 16.3486 15.9196 16.3486 15.7274C16.3486 15.5352 16.504 15.4199 16.6593 15.4199Z" fill="#E26037"/>
<path fill-rule="evenodd" clip-rule="evenodd" d="M20.2714 15.3046C21.4753 15.3046 22.4462 16.227 22.4462 17.38C22.4462 18.533 21.4753 19.4554 20.2714 19.4554C19.0676 19.4554 18.0967 18.533 18.0967 17.38C18.0967 16.227 19.0676 15.3046 20.2714 15.3046Z" fill="#DB3715"/>
<path fill-rule="evenodd" clip-rule="evenodd" d="M20.349 15.4583C21.5141 15.4583 22.4461 16.3422 22.4461 17.4568C22.4461 18.5714 21.5141 19.4554 20.349 19.4554C19.184 19.4554 18.252 18.5714 18.252 17.4568C18.252 16.3422 19.184 15.4583 20.349 15.4583Z" fill="#BE2218"/>
<path fill-rule="evenodd" clip-rule="evenodd" d="M21.2032 15.6888C21.8634 15.9963 22.2906 16.6497 22.2906 17.4184C22.2906 18.4945 21.3974 19.34 20.2712 19.34C19.6498 19.34 19.1061 19.071 18.7178 18.6482C18.9896 18.802 19.3003 18.8788 19.6498 18.8788C20.776 18.8788 21.6692 18.0333 21.6692 16.9572C21.6692 16.4575 21.5139 15.9963 21.2032 15.6888Z" fill="#AC2014"/>
<path fill-rule="evenodd" clip-rule="evenodd" d="M19.8055 15.6888C20.2716 15.6888 20.6599 16.0347 20.6599 16.4191C20.6599 16.8419 20.2716 17.1493 19.8055 17.1493C19.3395 17.1493 18.9512 16.8034 18.9512 16.4191C18.99 16.0347 19.3395 15.6888 19.8055 15.6888Z" fill="#DB3715"/>
<path fill-rule="evenodd" clip-rule="evenodd" d="M21.3586 16.3039C21.3586 16.3039 21.9799 16.8804 21.8634 17.5337C21.7081 18.1871 22.2518 17.8028 22.2518 17.4184C22.2518 17.0341 22.213 16.6498 22.0188 16.4576C21.8246 16.2654 21.1644 16.0733 21.3586 16.3039Z" fill="#DB3715"/>
<path fill-rule="evenodd" clip-rule="evenodd" d="M19.7277 16.0732C19.9218 16.0732 20.0384 16.1885 20.0384 16.3807C20.0384 16.5344 19.883 16.6882 19.7277 16.6882C19.5335 16.6882 19.417 16.5729 19.417 16.3807C19.417 16.227 19.5723 16.0732 19.7277 16.0732Z" fill="#E26037"/>
<path fill-rule="evenodd" clip-rule="evenodd" d="M18.4462 18.4177C19.6501 18.4177 20.621 19.3401 20.621 20.4931C20.621 20.9928 20.4268 21.454 20.1161 21.8383C18.9123 21.7615 17.7084 21.6846 16.5822 21.5309C16.388 21.2234 16.2715 20.8775 16.2715 20.4931C16.2715 19.3401 17.2424 18.4177 18.4462 18.4177Z" fill="#DB3715"/>
<path fill-rule="evenodd" clip-rule="evenodd" d="M18.5243 18.5714C19.6893 18.5714 20.6214 19.4554 20.6214 20.57C20.6214 21.0696 20.4272 21.4924 20.1553 21.8383C18.9515 21.7614 17.8252 21.6845 16.7379 21.5692C16.5437 21.2618 16.466 20.9543 16.466 20.57C16.4272 19.4554 17.3592 18.5714 18.5243 18.5714Z" fill="#BE2218"/>
<path fill-rule="evenodd" clip-rule="evenodd" d="M19.3782 18.802C20.0384 19.1095 20.4656 19.7628 20.4656 20.5315C20.4656 21.0312 20.2714 21.4924 19.9219 21.8383C19.5335 21.7998 19.1452 21.7998 18.7568 21.7614C19.417 21.4539 19.8442 20.8006 19.8442 20.0319C19.8442 19.5707 19.6889 19.1095 19.3782 18.802Z" fill="#AC2014"/>
<path fill-rule="evenodd" clip-rule="evenodd" d="M18.0194 18.802C18.4854 18.802 18.8738 19.1479 18.8738 19.5322C18.8738 19.955 18.4854 20.2625 18.0194 20.2625C17.5534 20.2625 17.165 19.9166 17.165 19.5322C17.165 19.1479 17.5534 18.802 18.0194 18.802Z" fill="#DB3715"/>
<path fill-rule="evenodd" clip-rule="evenodd" d="M19.5334 19.417C19.5334 19.417 20.1548 19.9935 20.0382 20.6469C19.8829 21.3003 20.4266 20.9159 20.4266 20.5316C20.4266 20.1473 20.3878 19.7629 20.1936 19.5708C19.9994 19.3786 19.3392 19.1864 19.5334 19.417Z" fill="#DB3715"/>
<path fill-rule="evenodd" clip-rule="evenodd" d="M17.9417 19.1864C18.1358 19.1864 18.2523 19.3017 18.2523 19.4939C18.2523 19.6476 18.097 19.8013 17.9417 19.8013C17.7475 19.8013 17.631 19.686 17.631 19.4939C17.5922 19.3401 17.7475 19.1864 17.9417 19.1864Z" fill="#E26037"/>
<path fill-rule="evenodd" clip-rule="evenodd" d="M24.7757 18.4177C25.9796 18.4177 26.9505 19.3401 26.9505 20.4931C26.9505 21.0312 26.7175 21.5309 26.368 21.9152C25.3194 21.9536 24.2709 21.9536 23.2612 21.9152C22.8728 21.5309 22.6398 21.0312 22.6398 20.4931C22.601 19.3401 23.5718 18.4177 24.7757 18.4177Z" fill="#DB3715"/>
<path fill-rule="evenodd" clip-rule="evenodd" d="M24.8529 18.5714C26.018 18.5714 26.95 19.4554 26.95 20.57C26.95 21.108 26.7559 21.5692 26.4063 21.9151C25.3966 21.9536 24.3481 21.9536 23.3384 21.9151C22.9889 21.5692 22.7559 21.0696 22.7559 20.5315C22.7559 19.4554 23.6879 18.5714 24.8529 18.5714Z" fill="#BE2218"/>
<path fill-rule="evenodd" clip-rule="evenodd" d="M25.7081 18.802C26.3683 19.1095 26.7955 19.7628 26.7955 20.5315C26.7955 21.108 26.5236 21.6077 26.1353 21.9536C25.5916 21.9536 25.0091 21.9536 24.4654 21.9536C25.4362 21.7998 26.1741 20.9927 26.1741 20.0319C26.1741 19.5707 25.9799 19.1095 25.7081 18.802ZM23.4168 21.9536C23.3392 21.8767 23.3003 21.8383 23.2227 21.7614C23.4168 21.8383 23.611 21.9151 23.8052 21.9536C23.6887 21.9536 23.5333 21.9536 23.4168 21.9536Z" fill="#AC2014"/>
<path fill-rule="evenodd" clip-rule="evenodd" d="M24.3094 18.802C24.7755 18.802 25.1638 19.1479 25.1638 19.5322C25.1638 19.955 24.7755 20.2625 24.3094 20.2625C23.8434 20.2625 23.4551 19.9166 23.4551 19.5322C23.4939 19.1479 23.8434 18.802 24.3094 18.802Z" fill="#DB3715"/>
<path fill-rule="evenodd" clip-rule="evenodd" d="M25.8635 19.417C25.8635 19.417 26.4848 19.9935 26.3683 20.6469C26.213 21.3003 26.7567 20.9159 26.7567 20.5316C26.7567 20.1473 26.7178 19.7629 26.5237 19.5708C26.3295 19.3786 25.6693 19.1864 25.8635 19.417Z" fill="#DB3715"/>
<path fill-rule="evenodd" clip-rule="evenodd" d="M24.2316 19.1864C24.4258 19.1864 24.5423 19.3017 24.5423 19.4939C24.5423 19.6476 24.3869 19.8013 24.2316 19.8013C24.0374 19.8013 23.9209 19.686 23.9209 19.4939C23.9209 19.3401 24.0762 19.1864 24.2316 19.1864Z" fill="#E26037"/>
<path fill-rule="evenodd" clip-rule="evenodd" d="M15.4169 17.7643C16.6208 17.7643 17.5917 18.6867 17.5917 19.8397C17.5917 20.5699 17.2034 21.2233 16.582 21.5692C15.5723 21.4539 14.6014 21.3002 13.7082 21.108C13.3975 20.7621 13.2422 20.3009 13.2422 19.8013C13.2422 18.6867 14.2131 17.7643 15.4169 17.7643Z" fill="#DB3715"/>
<path fill-rule="evenodd" clip-rule="evenodd" d="M15.4945 17.8796C16.6596 17.8796 17.5916 18.7636 17.5916 19.8782C17.5916 20.57 17.2033 21.1849 16.6596 21.5308C15.6887 21.4155 14.7178 21.2618 13.8635 21.1081C13.5916 20.7622 13.3975 20.3394 13.3975 19.8782C13.3975 18.802 14.3295 17.8796 15.4945 17.8796Z" fill="#BE2218"/>
<path fill-rule="evenodd" clip-rule="evenodd" d="M16.3487 18.1102C17.0089 18.4177 17.4361 19.0711 17.4361 19.8397C17.4361 20.57 17.0089 21.2234 16.3876 21.5308C15.805 21.454 15.2225 21.3771 14.6788 21.3002C14.7176 21.3002 14.7565 21.3002 14.7953 21.3002C15.9215 21.3002 16.8147 20.4547 16.8147 19.3785C16.8147 18.8789 16.6594 18.4561 16.3487 18.1102ZM13.941 21.1465C13.9021 21.1081 13.9021 21.1081 13.8633 21.0696C13.9798 21.1081 14.0575 21.1465 14.174 21.1849C14.0963 21.1849 14.0186 21.1465 13.941 21.1465Z" fill="#AC2014"/>
<path fill-rule="evenodd" clip-rule="evenodd" d="M14.9901 18.1486C15.4561 18.1486 15.8445 18.4945 15.8445 18.8788C15.8445 19.3016 15.4561 19.609 14.9901 19.609C14.5241 19.609 14.1357 19.2631 14.1357 18.8788C14.1357 18.456 14.5241 18.1486 14.9901 18.1486Z" fill="#DB3715"/>
<path fill-rule="evenodd" clip-rule="evenodd" d="M16.5041 18.7251C16.5041 18.7251 17.1255 19.3016 17.009 19.955C16.8536 20.6084 17.3973 20.224 17.3973 19.8397C17.3973 19.4554 17.3585 19.071 17.1643 18.8789C16.9701 18.6867 16.3099 18.4945 16.5041 18.7251Z" fill="#DB3715"/>
<path fill-rule="evenodd" clip-rule="evenodd" d="M14.8732 18.4945C15.0674 18.4945 15.1839 18.6098 15.1839 18.802C15.1839 18.9557 15.0285 19.1094 14.8732 19.1094C14.679 19.1094 14.5625 18.9941 14.5625 18.802C14.5625 18.6482 14.7178 18.4945 14.8732 18.4945Z" fill="#E26037"/>
<path fill-rule="evenodd" clip-rule="evenodd" d="M12.0383 17.8412C13.2422 17.8412 14.213 18.7636 14.213 19.9166C14.213 20.3778 14.0577 20.7621 13.8247 21.108C12.1936 20.7621 10.8344 20.3394 9.90234 19.7629C9.94118 18.7252 10.8732 17.8412 12.0383 17.8412Z" fill="#DB3715"/>
<path fill-rule="evenodd" clip-rule="evenodd" d="M12.1156 17.9949C13.2807 17.9949 14.2127 18.8788 14.2127 19.9934C14.2127 20.4162 14.0574 20.8005 13.8244 21.108C12.2321 20.8005 10.9506 20.3778 10.0186 19.8781C10.0962 18.8404 10.9894 17.9949 12.1156 17.9949Z" fill="#BE2218"/>
<path fill-rule="evenodd" clip-rule="evenodd" d="M12.9703 18.2255C13.6305 18.5329 14.0577 19.1863 14.0577 19.955C14.0577 20.3777 13.9024 20.8005 13.6305 21.108C13.3198 21.0311 13.048 20.9927 12.7373 20.9158C13.1645 20.5699 13.3975 20.0703 13.3975 19.4938C13.4752 18.9941 13.281 18.5714 12.9703 18.2255Z" fill="#AC2014"/>
<path fill-rule="evenodd" clip-rule="evenodd" d="M11.6112 18.2639C12.0772 18.2639 12.4656 18.6098 12.4656 18.9942C12.4656 19.4169 12.0772 19.7244 11.6112 19.7244C11.1452 19.7244 10.7568 19.3785 10.7568 18.9942C10.7568 18.5714 11.1452 18.2639 11.6112 18.2639Z" fill="#DB3715"/>
<path fill-rule="evenodd" clip-rule="evenodd" d="M13.1253 18.8405C13.1253 18.8405 13.7466 19.417 13.6301 20.0704C13.4748 20.7237 14.0185 20.3394 14.0185 19.9551C14.0185 19.5707 13.9796 19.1864 13.7855 18.9942C13.5913 18.8021 12.9699 18.6099 13.1253 18.8405Z" fill="#DB3715"/>
<path fill-rule="evenodd" clip-rule="evenodd" d="M11.5335 18.6099C11.7276 18.6099 11.8441 18.7252 11.8441 18.9173C11.8441 19.0711 11.6888 19.2248 11.5335 19.2248C11.3393 19.2248 11.2228 19.1095 11.2228 18.9173C11.184 18.7636 11.3393 18.6099 11.5335 18.6099Z" fill="#E26037"/>
<path fill-rule="evenodd" clip-rule="evenodd" d="M30.5241 38.7491C30.5241 38.7491 30.0581 39.5178 28.66 39.5178C27.262 39.5178 26.2911 38.9029 27.4561 38.9029C28.66 38.9413 30.5241 38.7491 30.5241 38.7491Z" fill="#416260"/>
<path fill-rule="evenodd" clip-rule="evenodd" d="M30.3684 33.9065C30.3684 33.9065 29.0869 34.3677 27.9606 34.1755C26.8344 33.9833 26.6403 33.4453 27.6111 33.5606C28.582 33.6759 28.6208 33.7143 29.2034 33.599C29.7471 33.4837 30.9509 33.4837 30.3684 33.9065Z" fill="#416260"/>
<path fill-rule="evenodd" clip-rule="evenodd" d="M24.5437 34.8289C27.0679 35.2901 29.165 35.2132 31.5339 34.4061C32.5048 34.0602 33.0097 34.2908 32.8932 35.1363C32.6602 36.3278 32 37.7498 28.1553 38.0189C24.2718 38.2879 23.2621 36.0587 23.4563 35.2516C23.6116 34.4061 24.1553 34.7904 24.5437 34.8289Z" fill="#3C2012"/>
<path fill-rule="evenodd" clip-rule="evenodd" d="M32.5436 36.174C32.0388 37.0195 30.9126 37.7882 28.1553 37.9804C26.097 38.1341 24.8543 37.5576 24.1553 36.9042C24.1553 35.6744 24.8155 35.6744 24.8155 35.6744C24.8155 35.6744 30.097 35.7897 31.4174 35.4822C32.0388 35.3669 32.3494 35.7128 32.5436 36.174Z" fill="white"/>
<path fill-rule="evenodd" clip-rule="evenodd" d="M32.1941 36.6353C31.5727 37.2886 30.4077 37.8651 28.1553 38.0189C26.097 38.1726 24.8543 37.5961 24.1553 36.9427C24.1553 36.9043 24.1553 36.8659 24.1553 36.8274L24.1941 36.8659C24.5048 37.2502 26.1747 37.8267 28.0388 37.8651C29.9028 37.9036 32.0776 36.6737 32.0776 36.6737L32.1941 36.6353Z" fill="#E4E2D8"/>
<path fill-rule="evenodd" clip-rule="evenodd" d="M32.5439 36.174C32.4273 36.3662 32.272 36.5968 32.0778 36.7889C32.039 36.443 31.9613 35.9818 31.806 35.905C31.573 35.7897 31.1458 36.4046 29.5536 36.443C27.9613 36.4815 25.0875 36.3277 24.8934 36.2509C24.7769 36.174 24.505 36.6736 24.505 37.2501C24.3885 37.1733 24.3108 37.0964 24.1943 36.9811C24.1943 35.7512 24.8545 35.7512 24.8545 35.7512C24.8545 35.7512 30.1361 35.8665 31.4565 35.5591C32.039 35.3669 32.3497 35.7128 32.5439 36.174Z" fill="#E4E2D8"/>
<path fill-rule="evenodd" clip-rule="evenodd" d="M24.5432 34.8288C27.0675 35.29 29.1646 35.2132 31.5335 34.4061C31.883 34.2908 32.1549 34.2523 32.3879 34.2523C32.3491 34.6751 32.0772 35.2132 31.3005 35.6359C30.2908 36.2124 26.019 36.1356 24.8927 35.8665C23.9995 35.6744 23.9219 34.9441 23.9219 34.6751C24.1549 34.7135 24.3879 34.7904 24.5432 34.8288Z" fill="white"/>
<path fill-rule="evenodd" clip-rule="evenodd" d="M24.5432 34.8288C27.0675 35.29 29.1646 35.2132 31.5335 34.4061C31.883 34.2908 32.1549 34.2523 32.3879 34.2523C32.3491 34.6367 32.1161 35.0979 31.4947 35.5206L31.5335 35.4822C32.1549 34.3676 31.4947 34.6751 30.8345 34.9441C30.1355 35.2516 27.5724 35.3669 26.8345 35.3285C26.0966 35.3285 25.1646 35.0979 24.9316 35.0594C24.6986 35.021 24.5432 35.0979 24.5821 35.3669C24.6209 35.5975 24.9316 35.7897 25.0481 35.8665C25.0093 35.8665 24.9316 35.8281 24.8927 35.8281C23.9995 35.6359 23.9219 34.9057 23.9219 34.6367C24.1549 34.7135 24.3879 34.7904 24.5432 34.8288Z" fill="#E4E2D8"/>
<path fill-rule="evenodd" clip-rule="evenodd" d="M7.41682 44.7448C7.41682 44.7448 6.83429 46.0515 5.78575 45.7056C4.77604 45.3213 2.75663 44.2067 3.96051 42.3619C5.12556 40.5171 6.0576 40.7092 6.36828 41.6316C6.67895 42.5541 5.90226 42.7078 5.90226 42.7078C5.90226 42.7078 7.99934 43.169 7.41682 44.7448Z" fill="#3C2012"/>
</g>
<defs>
<clipPath id="clip0_850_23393">
<rect width="64" height="64" fill="white"/>
</clipPath>
</defs>
</svg>
